<svg width="64" height="64" viewBox="0 0 64 64" fill="none" xmlns="http://www.w3.org/2000/svg">
<g clip-path="url(#clip0_323_9603)">
<path d="M56 0H8C3.58172 0 0 3.58172 0 8V56C0 60.4183 3.58172 64 8 64H42.568L47.445 52.1413L29.4153 56.1128L28.3378 51.2212L36.0454 32.4795L16.9172 36.7408L15.8397 31.8492L23.5473 13.1075L12.259 15.594L11.0986 10.3262L29.762 6.21506L30.8395 11.1067L23.0566 29.865L42.2601 25.587L43.3376 30.4787L35.5585 49.2276L53.6635 45.2395L54.741 50.1311L48.9867 64H56C60.4183 64 64 60.4183 64 56V8C64 3.58172 60.4183 0 56 0Z" fill="url(#paint0_linear_323_9603)"/>
</g>
<defs>
<linearGradient id="paint0_linear_323_9603" x1="48.5" y1="63.5" x2="-3.08071e-06" y2="2.35298e-06" gradientUnits="userSpaceOnUse">
<stop stop-color="#9BE15D"/>
<stop offset="1" stop-color="#00E3AE"/>
</linearGradient>
<clipPath id="clip0_323_9603">
<rect width="64" height="64" fill="white"/>
</clipPath>
</defs>
</svg>
