<svg width="1200" height="160" viewBox="0 0 1200 440" fill="none" xmlns="http://www.w3.org/2000/svg">
<path d="M49.44 84.22H89.2V109H15V85.62L54.2 34.52H15V9.88H89.2V33.26L49.44 84.22ZM134.264 9.88V109H103.184V9.88H134.264ZM229.361 43.9C229.361 50.1533 227.914 55.8467 225.021 60.98C222.127 66.02 217.834 70.0333 212.141 73.02C206.541 76.0067 199.727 77.5 191.701 77.5H179.381V109H148.301V9.88H191.701C203.834 9.88 213.121 12.96 219.561 19.12C226.094 25.28 229.361 33.54 229.361 43.9ZM188.201 53C194.641 53 197.861 49.9667 197.861 43.9C197.861 37.8333 194.641 34.8 188.201 34.8H179.381V53H188.201ZM320.279 43.9C320.279 50.1533 318.832 55.8467 315.939 60.98C313.045 66.02 308.752 70.0333 303.059 73.02C297.459 76.0067 290.645 77.5 282.619 77.5H270.299V109H239.219V9.88H282.619C294.752 9.88 304.039 12.96 310.479 19.12C317.012 25.28 320.279 33.54 320.279 43.9ZM279.119 53C285.559 53 288.779 49.9667 288.779 43.9C288.779 37.8333 285.559 34.8 279.119 34.8H270.299V53H279.119ZM425.337 9.88L389.777 78.9V109H358.697V78.9L323.137 9.88H358.697L374.517 45.02L390.337 9.88H425.337ZM466.842 84.22H506.602V109H432.402V85.62L471.602 34.52H432.402V9.88H506.602V33.26L466.842 84.22ZM551.666 9.88V109H520.586V9.88H551.666ZM626.463 43.76C625.25 41.8 623.523 40.3067 621.283 39.28C619.043 38.16 616.336 37.6 613.163 37.6C607.19 37.6 602.57 39.56 599.303 43.48C596.036 47.3067 594.403 52.58 594.403 59.3C594.403 67.0467 596.223 72.8333 599.863 76.66C603.503 80.4867 609.103 82.4 616.663 82.4C623.85 82.4 629.636 79.5067 634.023 73.72H609.243V51.74H659.783V82.82C655.49 90.1933 649.563 96.54 642.003 101.86C634.443 107.087 624.876 109.7 613.303 109.7C603.036 109.7 594.076 107.6 586.423 103.4C578.863 99.1067 573.03 93.1333 568.923 85.48C564.91 77.8267 562.903 69.1 562.903 59.3C562.903 49.5 564.91 40.7733 568.923 33.12C573.03 25.4667 578.863 19.54 586.423 15.34C593.983 11.0467 602.85 8.9 613.023 8.9C625.996 8.9 636.543 12.0267 644.663 18.28C652.876 24.5333 657.73 33.0267 659.223 43.76H626.463ZM731.737 43.76C730.523 41.8 728.797 40.3067 726.557 39.28C724.317 38.16 721.61 37.6 718.437 37.6C712.463 37.6 707.843 39.56 704.577 43.48C701.31 47.3067 699.677 52.58 699.677 59.3C699.677 67.0467 701.497 72.8333 705.137 76.66C708.777 80.4867 714.377 82.4 721.937 82.4C729.123 82.4 734.91 79.5067 739.297 73.72H714.517V51.74H765.057V82.82C760.763 90.1933 754.837 96.54 747.277 101.86C739.717 107.087 730.15 109.7 718.577 109.7C708.31 109.7 699.35 107.6 691.697 103.4C684.137 99.1067 678.303 93.1333 674.197 85.48C670.183 77.8267 668.177 69.1 668.177 59.3C668.177 49.5 670.183 40.7733 674.197 33.12C678.303 25.4667 684.137 19.54 691.697 15.34C699.257 11.0467 708.123 8.9 718.297 8.9C731.27 8.9 741.817 12.0267 749.937 18.28C758.15 24.5333 763.003 33.0267 764.497 43.76H731.737ZM871.45 9.88L835.89 78.9V109H804.81V78.9L769.25 9.88H804.81L820.63 45.02L836.45 9.88H871.45Z" fill="black"/>
<path d="M66.08 43.08L65.2297 43.6064L65.5229 44.08H66.08V43.08ZM61.64 39.24L61.1928 40.1344L61.2079 40.142L61.2233 40.1491L61.64 39.24ZM42.8 42.84L43.5606 43.4893L43.5682 43.4802L42.8 42.84ZM43.28 71.28L42.5554 71.9692L42.5554 71.9692L43.28 71.28ZM72.56 68.76L73.3569 69.3641L74.5729 67.76H72.56V68.76ZM51.32 68.76H50.32V69.76H51.32V68.76ZM51.32 49.92V48.92H50.32V49.92H51.32ZM94.64 49.92H95.64V48.92H94.64V49.92ZM94.64 76.56L95.5042 77.0632L95.64 76.8299V76.56H94.64ZM79.4 92.88L79.9687 93.7026L79.9755 93.6978L79.4 92.88ZM31.76 94.2L31.2662 95.0696L31.2725 95.0732L31.2789 95.0767L31.76 94.2ZM16.76 78.84L15.8743 79.3044L15.8788 79.3128L16.76 78.84ZM16.76 33.96L15.8788 33.4872L15.8744 33.4956L16.76 33.96ZM31.76 18.72L32.2457 19.5942L32.2538 19.5896L31.76 18.72ZM81.68 21.24L81.0698 22.0323L81.0742 22.0356L81.68 21.24ZM94.16 43.08V44.08H95.3088L95.1505 42.9422L94.16 43.08ZM66.9303 42.5536C65.7793 40.6944 64.1428 39.2871 62.0567 38.3309L61.2233 40.1491C62.9772 40.9529 64.3007 42.1056 65.2297 43.6064L66.9303 42.5536ZM62.0872 38.3456C59.9963 37.3001 57.5149 36.8 54.68 36.8V38.8C57.2851 38.8 59.4437 39.2599 61.1928 40.1344L62.0872 38.3456ZM54.68 36.8C49.3195 36.8 45.0551 38.5718 42.0318 42.1998L43.5682 43.4802C46.1449 40.3882 49.8005 38.8 54.68 38.8V36.8ZM42.0394 42.1907C39.0396 45.7049 37.6 50.4826 37.6 56.4H39.6C39.6 50.7974 40.9604 46.5351 43.5606 43.4893L42.0394 42.1907ZM37.6 56.4C37.6 63.1781 39.191 68.4323 42.5554 71.9692L44.0046 70.5908C41.129 67.5677 39.6 62.9019 39.6 56.4H37.6ZM42.5554 71.9692C45.9334 75.5204 51.046 77.2 57.68 77.2V75.2C51.354 75.2 46.8666 73.5996 44.0046 70.5908L42.5554 71.9692ZM57.68 77.2C64.1568 77.2 69.4102 74.5704 73.3569 69.3641L71.7631 68.1559C68.1898 72.8696 63.5232 75.2 57.68 75.2V77.2ZM72.56 67.76H51.32V69.76H72.56V67.76ZM52.32 68.76V49.92H50.32V68.76H52.32ZM51.32 50.92H94.64V48.92H51.32V50.92ZM93.64 49.92V76.56H95.64V49.92H93.64ZM93.7758 76.0568C90.1742 82.2423 85.1967 87.578 78.8245 92.0622L79.9755 93.6978C86.5633 89.062 91.7458 83.5177 95.5042 77.0632L93.7758 76.0568ZM78.8313 92.0574C72.5572 96.3951 64.5697 98.6 54.8 98.6V100.6C64.8703 100.6 73.2828 98.3249 79.9687 93.7026L78.8313 92.0574ZM54.8 98.6C46.1385 98.6 38.6297 96.8292 32.2411 93.3233L31.2789 95.0767C38.0104 98.7708 45.8615 100.6 54.8 100.6V98.6ZM32.2538 93.3304C25.9376 89.7434 21.0719 84.7609 17.6412 78.3672L15.8788 79.3128C19.4881 86.0391 24.6224 91.2966 31.2662 95.0696L32.2538 93.3304ZM17.6456 78.3756C14.2903 71.9771 12.6 64.6601 12.6 56.4H10.6C10.6 64.9399 12.3497 72.5829 15.8744 79.3044L17.6456 78.3756ZM12.6 56.4C12.6 48.1399 14.2903 40.8229 17.6456 34.4244L15.8744 33.4956C12.3497 40.2171 10.6 47.8601 10.6 56.4H12.6ZM17.6412 34.4328C21.0709 28.041 25.934 23.1006 32.2456 19.5942L31.2744 17.8458C24.626 21.5394 19.4891 26.759 15.8788 33.4872L17.6412 34.4328ZM32.2538 19.5896C38.5594 16.0086 45.9835 14.2 54.56 14.2V12.2C45.6966 12.2 37.9206 14.0714 31.2662 17.8504L32.2538 19.5896ZM54.56 14.2C65.5188 14.2 74.3267 16.8392 81.0699 22.0323L82.2902 20.4477C75.1133 14.9207 65.8412 12.2 54.56 12.2V14.2ZM81.0742 22.0356C87.8929 27.2271 91.9239 34.2648 93.1695 43.2178L95.1505 42.9422C93.8361 33.4952 89.5471 25.9729 82.2858 20.4444L81.0742 22.0356ZM94.16 42.08H66.08V44.08H94.16V42.08ZM169.994 57.84L170.862 58.3379L170.866 58.331L169.994 57.84ZM158.954 68.16L158.49 67.2744L158.484 67.2776L158.954 68.16ZM130.874 72V71H129.874V72H130.874ZM130.874 99V100H131.874V99H130.874ZM104.234 99H103.234V100H104.234V99ZM104.234 14.04V13.04H103.234V14.04H104.234ZM165.314 21.96L164.623 22.6827L164.628 22.6876L165.314 21.96ZM130.874 35.4V34.4H129.874V35.4H130.874ZM130.874 51H129.874V52H130.874V51ZM172.714 43.2C172.714 48.3989 171.514 53.1081 169.123 57.349L170.866 58.331C173.435 53.7719 174.714 48.7211 174.714 43.2H172.714ZM169.127 57.3421C166.752 61.48 163.22 64.7931 158.49 67.2745L159.419 69.0455C164.449 66.4069 168.277 62.84 170.862 58.3379L169.127 57.3421ZM158.484 67.2776C153.862 69.7426 148.193 71 141.434 71V73C148.436 73 154.447 71.6974 159.425 69.0424L158.484 67.2776ZM141.434 71H130.874V73H141.434V71ZM129.874 72V99H131.874V72H129.874ZM130.874 98H104.234V100H130.874V98ZM105.234 99V14.04H103.234V99H105.234ZM104.234 15.04H141.434V13.04H104.234V15.04ZM141.434 15.04C151.672 15.04 159.348 17.6369 164.623 22.6826L166.006 21.2374C160.241 15.7231 151.997 13.04 141.434 13.04V15.04ZM164.628 22.6876C169.997 27.7491 172.714 34.5491 172.714 43.2H174.714C174.714 34.0909 171.832 26.7309 166 21.2324L164.628 22.6876ZM138.434 52C141.334 52 143.695 51.3182 145.33 49.7779C146.976 48.227 147.714 45.9699 147.714 43.2H145.714C145.714 45.6301 145.072 47.273 143.959 48.3221C142.834 49.3818 141.055 50 138.434 50V52ZM147.714 43.2C147.714 40.4301 146.976 38.173 145.33 36.6221C143.695 35.0818 141.334 34.4 138.434 34.4V36.4C141.055 36.4 142.834 37.0182 143.959 38.0779C145.072 39.127 145.714 40.7699 145.714 43.2H147.714ZM138.434 34.4H130.874V36.4H138.434V34.4ZM129.874 35.4V51H131.874V35.4H129.874ZM130.874 52H138.434V50H130.874V52ZM248.884 14.04H249.884V13.04H248.884V14.04ZM248.884 35.16V36.16H249.884V35.16H248.884ZM226.324 35.16V34.16H225.324V35.16H226.324ZM226.324 99V100H227.324V99H226.324ZM199.684 99H198.684V100H199.684V99ZM199.684 35.16H200.684V34.16H199.684V35.16ZM177.364 35.16H176.364V36.16H177.364V35.16ZM177.364 14.04V13.04H176.364V14.04H177.364ZM247.884 14.04V35.16H249.884V14.04H247.884ZM248.884 34.16H226.324V36.16H248.884V34.16ZM225.324 35.16V99H227.324V35.16H225.324ZM226.324 98H199.684V100H226.324V98ZM200.684 99V35.16H198.684V99H200.684ZM199.684 34.16H177.364V36.16H199.684V34.16ZM178.364 35.16V14.04H176.364V35.16H178.364ZM177.364 15.04H248.884V13.04H177.364V15.04ZM383.041 57.84L383.909 58.3379L383.912 58.331L383.041 57.84ZM372.001 68.16L371.537 67.2744L371.531 67.2776L372.001 68.16ZM343.921 72V71H342.921V72H343.921ZM343.921 99V100H344.921V99H343.921ZM317.281 99H316.281V100H317.281V99ZM317.281 14.04V13.04H316.281V14.04H317.281ZM378.361 21.96L377.67 22.6827L377.675 22.6876L378.361 21.96ZM343.921 35.4V34.4H342.921V35.4H343.921ZM343.921 51H342.921V52H343.921V51ZM385.761 43.2C385.761 48.3989 384.56 53.1081 382.17 57.349L383.912 58.331C386.482 53.7719 387.761 48.7211 387.761 43.2H385.761ZM382.174 57.3421C379.799 61.48 376.267 64.7931 371.537 67.2745L372.466 69.0455C377.496 66.4069 381.324 62.84 383.909 58.3379L382.174 57.3421ZM371.531 67.2776C366.909 69.7426 361.24 71 354.481 71V73C361.483 73 367.494 71.6974 372.472 69.0424L371.531 67.2776ZM354.481 71H343.921V73H354.481V71ZM342.921 72V99H344.921V72H342.921ZM343.921 98H317.281V100H343.921V98ZM318.281 99V14.04H316.281V99H318.281ZM317.281 15.04H354.481V13.04H317.281V15.04ZM354.481 15.04C364.719 15.04 372.395 17.6369 377.67 22.6826L379.052 21.2374C373.288 15.7231 365.044 13.04 354.481 13.04V15.04ZM377.675 22.6876C383.043 27.7491 385.761 34.5491 385.761 43.2H387.761C387.761 34.0909 384.879 26.7309 379.047 21.2324L377.675 22.6876ZM351.481 52C354.381 52 356.742 51.3182 358.377 49.7779C360.023 48.227 360.761 45.9699 360.761 43.2H358.761C358.761 45.6301 358.119 47.273 357.006 48.3221C355.881 49.3818 354.101 50 351.481 50V52ZM360.761 43.2C360.761 40.4301 360.023 38.173 358.377 36.6221C356.742 35.0818 354.381 34.4 351.481 34.4V36.4C354.101 36.4 355.881 37.0182 357.006 38.0779C358.119 39.127 358.761 40.7699 358.761 43.2H360.761ZM351.481 34.4H343.921V36.4H351.481V34.4ZM342.921 35.4V51H344.921V35.4H342.921ZM343.921 52H351.481V50H343.921V52ZM421.851 43.8H420.851V46.9953L422.673 44.3701L421.851 43.8ZM431.811 34.44L432.32 35.3006L432.327 35.2968L432.333 35.2928L431.811 34.44ZM444.051 30.84H445.051V29.84H444.051V30.84ZM444.051 59.28V60.28H445.051V59.28H444.051ZM425.331 61.92L424.74 61.1136L424.733 61.1184L424.727 61.1233L425.331 61.92ZM421.851 99V100H422.851V99H421.851ZM395.211 99H394.211V100H395.211V99ZM395.211 31.32V30.32H394.211V31.32H395.211ZM421.851 31.32H422.851V30.32H421.851V31.32ZM422.673 44.3701C425.315 40.5625 428.53 37.5438 432.32 35.3006L431.302 33.5794C427.252 35.9761 423.827 39.1975 421.029 43.2299L422.673 44.3701ZM432.333 35.2928C436.11 32.9807 440.011 31.84 444.051 31.84V29.84C439.611 29.84 435.352 31.0993 431.289 33.5871L432.333 35.2928ZM443.051 30.84V59.28H445.051V30.84H443.051ZM444.051 58.28H436.491V60.28H444.051V58.28ZM436.491 58.28C431.371 58.28 427.394 59.1671 424.74 61.1136L425.922 62.7264C428.068 61.1529 431.531 60.28 436.491 60.28V58.28ZM424.727 61.1233C422.046 63.1567 420.851 66.6596 420.851 71.28H422.851C422.851 66.9404 423.976 64.2033 425.935 62.7167L424.727 61.1233ZM420.851 71.28V99H422.851V71.28H420.851ZM421.851 98H395.211V100H421.851V98ZM396.211 99V31.32H394.211V99H396.211ZM395.211 32.32H421.851V30.32H395.211V32.32ZM420.851 31.32V43.8H422.851V31.32H420.851ZM465.027 95.64L465.484 94.7509L465.027 95.64ZM452.187 83.64L451.32 84.139L451.324 84.1468L451.329 84.1545L452.187 83.64ZM452.187 46.8L451.326 46.2913L451.323 46.2953L452.187 46.8ZM465.027 34.68L465.484 35.5691L465.484 35.5691L465.027 34.68ZM501.747 34.68L501.289 35.5691L501.289 35.5691L501.747 34.68ZM514.467 46.8L513.6 47.299L513.604 47.3068L513.609 47.3145L514.467 46.8ZM514.467 83.64L513.606 83.1313L513.603 83.1353L514.467 83.64ZM501.747 95.64L501.289 94.7509L501.289 94.7509L501.747 95.64ZM489.627 73.92L490.379 74.5785L490.386 74.5709L490.392 74.5632L489.627 73.92ZM489.627 56.52L488.861 57.1632L488.867 57.1709L488.874 57.1785L489.627 56.52ZM477.147 56.52L477.899 57.1785L477.906 57.1709L477.912 57.1632L477.147 56.52ZM477.027 73.92L476.246 74.5447L476.259 74.5619L476.274 74.5785L477.027 73.92ZM483.387 98.84C476.728 98.84 470.767 97.4702 465.484 94.7509L464.569 96.5291C470.166 99.4098 476.445 100.84 483.387 100.84V98.84ZM465.484 94.7509C460.208 92.0353 456.067 88.1643 453.044 83.1255L451.329 84.1545C454.546 89.5157 458.965 93.6447 464.569 96.5291L465.484 94.7509ZM453.053 83.141C450.113 78.035 448.627 72.0524 448.627 65.16H446.627C446.627 72.3476 448.18 78.685 451.32 84.139L453.053 83.141ZM448.627 65.16C448.627 58.2671 450.114 52.3274 453.05 47.3047L451.323 46.2953C448.18 51.6726 446.627 57.9729 446.627 65.16H448.627ZM453.047 47.3087C456.072 42.1906 460.212 38.2827 465.484 35.5691L464.569 33.7909C458.961 36.6773 454.541 40.8494 451.326 46.2913L453.047 47.3087ZM465.484 35.5691C470.767 32.8498 476.728 31.48 483.387 31.48V29.48C476.445 29.48 470.166 30.9102 464.569 33.7909L465.484 35.5691ZM483.387 31.48C490.045 31.48 496.006 32.8498 501.289 35.5691L502.204 33.7909C496.607 30.9102 490.328 29.48 483.387 29.48V31.48ZM501.289 35.5691C506.559 38.2815 510.656 42.1864 513.6 47.299L515.333 46.301C512.197 40.8536 507.814 36.6785 502.204 33.7909L501.289 35.5691ZM513.609 47.3145C516.622 52.3355 518.147 58.2717 518.147 65.16H520.147C520.147 57.9683 518.551 51.6645 515.324 46.2855L513.609 47.3145ZM518.147 65.16C518.147 72.0479 516.622 78.027 513.606 83.1313L515.327 84.1487C518.551 78.693 520.147 72.3521 520.147 65.16H518.147ZM513.603 83.1353C510.661 88.1685 506.563 92.0364 501.289 94.7509L502.204 96.5291C507.81 93.6436 512.192 89.5115 515.33 84.1447L513.603 83.1353ZM501.289 94.7509C496.006 97.4702 490.045 98.84 483.387 98.84V100.84C490.328 100.84 496.607 99.4098 502.204 96.5291L501.289 94.7509ZM483.387 77.8C486.164 77.8 488.515 76.7084 490.379 74.5785L488.874 73.2615C487.378 74.9716 485.569 75.8 483.387 75.8V77.8ZM490.392 74.5632C492.281 72.315 493.147 69.1278 493.147 65.16H491.147C491.147 68.8722 490.332 71.525 488.861 73.2768L490.392 74.5632ZM493.147 65.16C493.147 61.1962 492.282 58.0366 490.379 55.8615L488.874 57.1785C490.331 58.8434 491.147 61.4438 491.147 65.16H493.147ZM490.392 55.8768C488.534 53.6644 486.18 52.52 483.387 52.52V54.52C485.554 54.52 487.359 55.3756 488.861 57.1632L490.392 55.8768ZM483.387 52.52C480.594 52.52 478.239 53.6644 476.381 55.8768L477.912 57.1632C479.414 55.3756 481.22 54.52 483.387 54.52V52.52ZM476.394 55.8615C474.491 58.0366 473.627 61.1962 473.627 65.16H475.627C475.627 61.4438 476.442 58.8434 477.899 57.1785L476.394 55.8615ZM473.627 65.16C473.627 69.1184 474.448 72.2979 476.246 74.5447L477.807 73.2953C476.405 71.542 475.627 68.8816 475.627 65.16H473.627ZM476.274 74.5785C478.145 76.7164 480.539 77.8 483.387 77.8V75.8C481.114 75.8 479.269 74.9636 477.779 73.2615L476.274 74.5785ZM637.916 38.64L637.175 39.3121L637.181 39.3183L637.916 38.64ZM645.116 99V100H646.116V99H645.116ZM618.596 99H617.596V100H618.596V99ZM615.956 56.4L615.249 57.1071L615.265 57.1239L615.283 57.1399L615.956 56.4ZM602.156 56.4L602.845 57.1241L602.854 57.1157L602.863 57.1071L602.156 56.4ZM599.636 99V100H600.636V99H599.636ZM573.116 99H572.116V100H573.116V99ZM570.476 56.4L569.769 57.1071L569.785 57.1239L569.803 57.1399L570.476 56.4ZM556.676 56.4L557.365 57.1241L557.374 57.1157L557.383 57.1071L556.676 56.4ZM554.156 99V100H555.156V99H554.156ZM527.516 99H526.516V100H527.516V99ZM527.516 31.32V30.32H526.516V31.32H527.516ZM554.156 31.32H555.156V30.32H554.156V31.32ZM554.156 40.44H553.156V43.7428L554.988 40.9947L554.156 40.44ZM561.956 33.48L561.492 32.5941L561.483 32.5988L561.956 33.48ZM586.676 34.08L586.178 34.9471L586.185 34.9511L586.192 34.955L586.676 34.08ZM595.676 42.96L594.812 43.4639L595.596 44.8088L596.493 43.536L595.676 42.96ZM605.156 34.32L605.659 35.1838L605.666 35.1799L605.673 35.1759L605.156 34.32ZM617.876 31.84C626.304 31.84 632.687 34.3677 637.175 39.3121L638.656 37.9679C633.704 32.5123 626.728 29.84 617.876 29.84V31.84ZM637.181 39.3183C641.77 44.2897 644.116 51.0646 644.116 59.76H646.116C646.116 50.6954 643.661 43.3903 638.65 37.9617L637.181 39.3183ZM644.116 59.76V99H646.116V59.76H644.116ZM645.116 98H618.596V100H645.116V98ZM619.596 99V63.12H617.596V99H619.596ZM619.596 63.12C619.596 60.0226 618.64 57.4889 616.628 55.6601L615.283 57.1399C616.791 58.5111 617.596 60.4574 617.596 63.12H619.596ZM616.663 55.6929C614.757 53.7868 612.201 52.88 609.116 52.88V54.88C611.79 54.88 613.795 55.6532 615.249 57.1071L616.663 55.6929ZM609.116 52.88C605.959 52.88 603.36 53.7817 601.449 55.6929L602.863 57.1071C604.312 55.6583 606.352 54.88 609.116 54.88V52.88ZM601.466 55.6759C599.542 57.5082 598.636 60.0368 598.636 63.12H600.636C600.636 60.4432 601.409 58.4918 602.845 57.1241L601.466 55.6759ZM598.636 63.12V99H600.636V63.12H598.636ZM599.636 98H573.116V100H599.636V98ZM574.116 99V63.12H572.116V99H574.116ZM574.116 63.12C574.116 60.0226 573.16 57.4889 571.148 55.6601L569.803 57.1399C571.311 58.5111 572.116 60.4574 572.116 63.12H574.116ZM571.183 55.6929C569.277 53.7868 566.721 52.88 563.636 52.88V54.88C566.31 54.88 568.315 55.6532 569.769 57.1071L571.183 55.6929ZM563.636 52.88C560.479 52.88 557.88 53.7817 555.969 55.6929L557.383 57.1071C558.831 55.6583 560.872 54.88 563.636 54.88V52.88ZM555.986 55.6759C554.062 57.5082 553.156 60.0368 553.156 63.12H555.156C555.156 60.4432 555.929 58.4918 557.365 57.1241L555.986 55.6759ZM553.156 63.12V99H555.156V63.12H553.156ZM554.156 98H527.516V100H554.156V98ZM528.516 99V31.32H526.516V99H528.516ZM527.516 32.32H554.156V30.32H527.516V32.32ZM553.156 31.32V40.44H555.156V31.32H553.156ZM554.988 40.9947C556.81 38.2616 559.282 36.0495 562.428 34.3612L561.483 32.5988C558.069 34.4305 555.341 36.8584 553.324 39.8853L554.988 40.9947ZM562.42 34.3658C565.613 32.6933 569.368 31.84 573.716 31.84V29.84C569.103 29.84 565.019 30.7467 561.492 32.5942L562.42 34.3658ZM573.716 31.84C578.443 31.84 582.587 32.8847 586.178 34.9471L587.174 33.2129C583.244 30.9553 578.748 29.84 573.716 29.84V31.84ZM586.192 34.955C589.788 36.9447 592.659 39.7739 594.812 43.4639L596.539 42.4561C594.212 38.4661 591.083 35.3753 587.16 33.205L586.192 34.955ZM596.493 43.536C598.888 40.1371 601.939 37.3539 605.659 35.1838L604.652 33.4562C600.692 35.7661 597.424 38.7429 594.858 42.384L596.493 43.536ZM605.673 35.1759C609.351 32.9535 613.411 31.84 617.876 31.84V29.84C613.06 29.84 608.64 31.0465 604.639 33.4641L605.673 35.1759ZM683.296 40.56H682.296L684.177 41.0341L683.296 40.56ZM690.496 33.24L690.988 34.111L690.995 34.1069L690.496 33.24ZM716.176 34.68L715.625 35.5145L715.636 35.5217L716.176 34.68ZM726.136 46.68L725.226 47.0938L725.23 47.1022L725.234 47.1105L726.136 46.68ZM726.136 83.76L725.231 83.3349L725.228 83.3409L726.136 83.76ZM716.176 95.76L716.716 96.6018L716.727 96.5945L716.176 95.76ZM690.496 97.2L689.988 98.0614L690.001 98.069L690.014 98.0762L690.496 97.2ZM683.296 89.76L684.177 89.2859L682.296 89.76H683.296ZM683.296 131.4V132.4H684.296V131.4H683.296ZM656.656 131.4H655.656V132.4H656.656V131.4ZM656.656 31.32V30.32H655.656V31.32H656.656ZM683.296 31.32H684.296V30.32H683.296V31.32ZM700.096 56.76L700.832 56.0829L700.832 56.0829L700.096 56.76ZM685.936 56.76L685.2 56.0829L685.2 56.0829L685.936 56.76ZM685.936 73.56L685.2 74.2371L685.2 74.2371L685.936 73.56ZM684.177 41.0341C685.766 38.0824 688.03 35.7792 690.988 34.111L690.005 32.369C686.722 34.2208 684.186 36.7976 682.416 40.0859L684.177 41.0341ZM690.995 34.1069C694.016 32.3695 697.638 31.48 701.896 31.48V29.48C697.355 29.48 693.376 30.4305 689.998 32.3731L690.995 34.1069ZM701.896 31.48C706.988 31.48 711.555 32.8268 715.625 35.5145L716.727 33.8455C712.317 30.9332 707.364 29.48 701.896 29.48V31.48ZM715.636 35.5217C719.691 38.1227 722.893 41.9619 725.226 47.0938L727.047 46.2662C724.579 40.8381 721.142 36.6773 716.716 33.8383L715.636 35.5217ZM725.234 47.1105C727.636 52.1481 728.856 58.1546 728.856 65.16H730.856C730.856 57.9254 729.596 51.6119 727.039 46.2495L725.234 47.1105ZM728.856 65.16C728.856 72.1648 727.636 78.2139 725.231 83.3349L727.041 84.1851C729.596 78.7461 730.856 72.3952 730.856 65.16H728.856ZM725.228 83.3409C722.896 88.394 719.691 92.2407 715.625 94.9255L716.727 96.5945C721.142 93.6793 724.576 89.526 727.044 84.1791L725.228 83.3409ZM715.636 94.9183C711.565 97.5298 706.995 98.84 701.896 98.84V100.84C707.358 100.84 712.307 99.4302 716.716 96.6017L715.636 94.9183ZM701.896 98.84C697.63 98.84 694.003 97.9875 690.978 96.3238L690.014 98.0762C693.389 99.9325 697.362 100.84 701.896 100.84V98.84ZM691.004 96.3386C688.038 94.5892 685.768 92.2415 684.177 89.2859L682.416 90.2341C684.184 93.5185 686.715 96.1308 689.988 98.0614L691.004 96.3386ZM682.296 89.76V131.4H684.296V89.76H682.296ZM683.296 130.4H656.656V132.4H683.296V130.4ZM657.656 131.4V31.32H655.656V131.4H657.656ZM656.656 32.32H683.296V30.32H656.656V32.32ZM682.296 31.32V40.56H684.296V31.32H682.296ZM703.856 65.16C703.856 61.3925 702.891 58.3208 700.832 56.0829L699.36 57.4371C700.981 59.1992 701.856 61.7275 701.856 65.16H703.856ZM700.832 56.0829C698.79 53.8637 696.157 52.76 693.016 52.76V54.76C695.635 54.76 697.722 55.6563 699.36 57.4371L700.832 56.0829ZM693.016 52.76C689.875 52.76 687.242 53.8637 685.2 56.0829L686.672 57.4371C688.31 55.6563 690.397 54.76 693.016 54.76V52.76ZM685.2 56.0829C683.141 58.3208 682.176 61.3925 682.176 65.16H684.176C684.176 61.7275 685.051 59.1992 686.672 57.4371L685.2 56.0829ZM682.176 65.16C682.176 68.9275 683.141 71.9992 685.2 74.2371L686.672 72.8829C685.051 71.1208 684.176 68.5925 684.176 65.16H682.176ZM685.2 74.2371C687.242 76.4563 689.875 77.56 693.016 77.56V75.56C690.397 75.56 688.31 74.6637 686.672 72.8829L685.2 74.2371ZM693.016 77.56C696.157 77.56 698.79 76.4563 700.832 74.2371L699.36 72.8829C697.722 74.6637 695.635 75.56 693.016 75.56V77.56ZM700.832 74.2371C702.891 71.9992 703.856 68.9275 703.856 65.16H701.856C701.856 68.5925 700.981 71.1208 699.36 72.8829L700.832 74.2371ZM780.339 76.32H781.339V75.32H780.339V76.32ZM780.339 99V100H781.339V99H780.339ZM742.419 53.52H743.419V52.52H742.419V53.52ZM734.019 53.52H733.019V54.52H734.019V53.52ZM734.019 31.32V30.32H733.019V31.32H734.019ZM742.419 31.32V32.32H743.419V31.32H742.419ZM742.419 15V14H741.419V15H742.419ZM769.059 15H770.059V14H769.059V15ZM769.059 31.32H768.059V32.32H769.059V31.32ZM780.099 31.32H781.099V30.32H780.099V31.32ZM780.099 53.52V54.52H781.099V53.52H780.099ZM769.059 53.52V52.52H768.059V53.52H769.059ZM770.139 75.24L769.432 75.9471L769.45 75.9657L769.47 75.9833L770.139 75.24ZM779.339 76.32V99H781.339V76.32H779.339ZM780.339 98H770.259V100H780.339V98ZM770.259 98C761.132 98 754.47 95.7286 750.084 91.3614C745.699 86.9949 743.419 80.3648 743.419 71.28H741.419C741.419 80.6752 743.779 87.9051 748.673 92.7786C753.567 97.6514 760.826 100 770.259 100V98ZM743.419 71.28V53.52H741.419V71.28H743.419ZM742.419 52.52H734.019V54.52H742.419V52.52ZM735.019 53.52V31.32H733.019V53.52H735.019ZM734.019 32.32H742.419V30.32H734.019V32.32ZM743.419 31.32V15H741.419V31.32H743.419ZM742.419 16H769.059V14H742.419V16ZM768.059 15V31.32H770.059V15H768.059ZM769.059 32.32H780.099V30.32H769.059V32.32ZM779.099 31.32V53.52H781.099V31.32H779.099ZM780.099 52.52H769.059V54.52H780.099V52.52ZM768.059 53.52V71.76H770.059V53.52H768.059ZM768.059 71.76C768.059 73.4783 768.441 74.9564 769.432 75.9471L770.846 74.5329C770.397 74.0836 770.059 73.2417 770.059 71.76H768.059ZM769.47 75.9833C770.539 76.946 772.119 77.32 773.979 77.32V75.32C772.318 75.32 771.338 74.974 770.808 74.4967L769.47 75.9833ZM773.979 77.32H780.339V75.32H773.979V77.32ZM803.564 96.72L803.172 97.6399L803.178 97.6422L803.564 96.72ZM787.004 75.6V74.6H785.914L786.008 75.6859L787.004 75.6ZM812.564 75.6L813.552 75.442L813.417 74.6H812.564V75.6ZM815.084 80.04L814.508 80.857L814.519 80.8647L814.53 80.872L815.084 80.04ZM823.724 80.64L824.298 81.4592L824.324 81.4409L824.349 81.4209L823.724 80.64ZM813.884 72.96L814.08 71.9794L814.077 71.9788L813.884 72.96ZM801.764 69.84L801.427 70.7812L801.434 70.7839L801.764 69.84ZM793.484 64.08L792.724 64.7289L792.729 64.7353L792.735 64.7416L793.484 64.08ZM793.244 41.52L792.406 40.9743L792.403 40.9792L793.244 41.52ZM803.084 33.48L803.491 34.3938L803.498 34.3907L803.504 34.3875L803.084 33.48ZM840.164 37.2L839.506 37.9526L839.512 37.9576L840.164 37.2ZM849.524 54.72V55.72H850.679L850.514 54.577L849.524 54.72ZM825.884 54.72L824.907 54.9324L825.078 55.72H825.884V54.72ZM823.364 50.52L822.734 51.2961L822.749 51.3084L822.764 51.32L823.364 50.52ZM815.084 49.8L815.639 50.632L815.669 50.6118L815.698 50.5893L815.084 49.8ZM816.524 55.2L816.13 56.1191L816.149 56.1272L816.168 56.1345L816.524 55.2ZM824.564 57.24L824.757 56.2588L824.756 56.2586L824.564 57.24ZM836.924 60.48L836.588 61.4217L836.588 61.4217L836.924 60.48ZM845.684 66.72L844.918 67.3623L844.927 67.3725L845.684 66.72ZM845.924 89.52L846.734 90.107L846.734 90.107L845.924 89.52ZM835.844 97.08L835.459 96.1574L835.453 96.16L835.844 97.08ZM820.604 98.84C814.312 98.84 808.768 97.8177 803.951 95.7978L803.178 97.6422C808.281 99.7823 814.096 100.84 820.604 100.84V98.84ZM803.956 95.8001C799.211 93.7772 795.474 90.9936 792.712 87.4637L791.137 88.6963C794.134 92.5264 798.158 95.5028 803.172 97.6399L803.956 95.8001ZM792.712 87.4637C789.951 83.9359 788.384 79.9601 788.001 75.5141L786.008 75.6859C786.425 80.5199 788.138 84.8641 791.137 88.6963L792.712 87.4637ZM787.004 76.6H812.564V74.6H787.004V76.6ZM811.577 75.758C811.93 77.9623 812.881 79.7089 814.508 80.857L815.661 79.223C814.567 78.4511 813.839 77.2377 813.552 75.442L811.577 75.758ZM814.53 80.872C816.171 81.9659 818.176 82.48 820.484 82.48V80.48C818.473 80.48 816.878 80.0341 815.639 79.2079L814.53 80.872ZM820.484 82.48C821.971 82.48 823.275 82.1749 824.298 81.4592L823.151 79.8208C822.573 80.2251 821.717 80.48 820.484 80.48V82.48ZM824.349 81.4209C825.343 80.626 825.924 79.5956 825.924 78.36H823.924C823.924 78.8843 823.706 79.3739 823.1 79.8591L824.349 81.4209ZM825.924 78.36C825.924 77.4037 825.655 76.5311 825.084 75.7961C824.521 75.0729 823.719 74.5507 822.76 74.1855L822.048 76.0545C822.77 76.3293 823.227 76.6671 823.505 77.0239C823.773 77.3689 823.924 77.7963 823.924 78.36H825.924ZM822.76 74.1855C820.996 73.5133 818.084 72.7802 814.08 71.9794L813.688 73.9406C817.685 74.7398 820.453 75.4467 822.048 76.0545L822.76 74.1855ZM814.077 71.9788C809.225 71.0242 805.234 69.9951 802.095 68.8961L801.434 70.7839C804.694 71.9249 808.784 72.9758 813.691 73.9412L814.077 71.9788ZM802.102 68.8988C799.156 67.841 796.533 66.0242 794.234 63.4184L792.735 64.7416C795.235 67.5758 798.133 69.599 801.427 70.7812L802.102 68.8988ZM794.245 63.4311C792.126 60.946 791.004 57.4442 791.004 52.8H789.004C789.004 57.7558 790.203 61.774 792.724 64.7289L794.245 63.4311ZM791.004 52.8C791.004 48.8234 792.034 45.2526 794.086 42.0608L792.403 40.9792C790.135 44.5074 789.004 48.4566 789.004 52.8H791.004ZM794.082 42.0657C796.202 38.8109 799.32 36.2476 803.491 34.3938L802.678 32.5662C798.209 34.5524 794.767 37.349 792.406 40.9743L794.082 42.0657ZM803.504 34.3875C807.66 32.4636 812.748 31.48 818.804 31.48V29.48C812.54 29.48 807.149 30.4964 802.664 32.5725L803.504 34.3875ZM818.804 31.48C827.766 31.48 834.622 33.6796 839.506 37.9526L840.823 36.4474C835.466 31.7604 828.083 29.48 818.804 29.48V31.48ZM839.512 37.9576C844.517 42.2701 847.527 47.8862 848.535 54.863L850.514 54.577C849.442 47.1538 846.211 41.0899 840.817 36.4424L839.512 37.9576ZM849.524 53.72H825.884V55.72H849.524V53.72ZM826.862 54.5076C826.42 52.4765 825.47 50.849 823.964 49.72L822.764 51.32C823.819 52.111 824.549 53.2835 824.907 54.9324L826.862 54.5076ZM823.995 49.7439C822.488 48.5195 820.522 47.96 818.204 47.96V49.96C820.206 49.96 821.681 50.4405 822.734 51.2961L823.995 49.7439ZM818.204 47.96C816.726 47.96 815.434 48.2615 814.47 49.0106L815.698 50.5893C816.175 50.2185 816.962 49.96 818.204 49.96V47.96ZM814.53 48.9679C813.473 49.6726 813.004 50.7831 813.004 52.08H815.004C815.004 51.2969 815.256 50.8874 815.639 50.632L814.53 48.9679ZM813.004 52.08C813.004 52.9844 813.29 53.8071 813.856 54.5083C814.409 55.193 815.193 55.7174 816.13 56.1191L816.918 54.2809C816.176 53.9626 815.699 53.607 815.412 53.2517C815.139 52.9129 815.004 52.5356 815.004 52.08H813.004ZM816.168 56.1345C817.933 56.8066 820.683 57.4995 824.372 58.2214L824.756 56.2586C821.086 55.5404 818.476 54.8734 816.88 54.2655L816.168 56.1345ZM824.371 58.2212C829.22 59.175 833.289 60.2435 836.588 61.4217L837.261 59.5383C833.84 58.3165 829.669 57.225 824.757 56.2588L824.371 58.2212ZM836.588 61.4217C839.767 62.557 842.542 64.5269 844.918 67.3622L846.451 66.0778C843.866 62.9931 840.802 60.803 837.261 59.5383L836.588 61.4217ZM844.927 67.3725C847.203 70.0163 848.404 73.7558 848.404 78.72H850.404C850.404 73.4442 849.126 69.1837 846.442 66.0675L844.927 67.3725ZM848.404 78.72C848.404 82.5119 847.309 85.9059 845.115 88.933L846.734 90.107C849.179 86.7341 850.404 82.9281 850.404 78.72H848.404ZM845.115 88.933C842.923 91.9563 839.724 94.3736 835.459 96.1574L836.23 98.0026C840.764 96.1064 844.286 93.4837 846.734 90.107L845.115 88.933ZM835.453 96.16C831.283 97.936 826.342 98.84 820.604 98.84V100.84C826.547 100.84 831.766 99.904 836.236 98L835.453 96.16Z" fill="black"/>
<path d="M79.508 29.456H80.508V28.456H79.508V29.456ZM79.508 50.224V51.224H80.508V50.224H79.508ZM57.324 50.224V49.224H56.324V50.224H57.324ZM57.324 113V114H58.324V113H57.324ZM31.128 113H30.128V114H31.128V113ZM31.128 50.224H32.128V49.224H31.128V50.224ZM9.18 50.224H8.18V51.224H9.18V50.224ZM9.18 29.456V28.456H8.18V29.456H9.18ZM78.508 29.456V50.224H80.508V29.456H78.508ZM79.508 49.224H57.324V51.224H79.508V49.224ZM56.324 50.224V113H58.324V50.224H56.324ZM57.324 112H31.128V114H57.324V112ZM32.128 113V50.224H30.128V113H32.128ZM31.128 49.224H9.18V51.224H31.128V49.224ZM10.18 50.224V29.456H8.18V50.224H10.18ZM9.18 30.456H79.508V28.456H9.18V30.456ZM86.6129 61.552L85.7077 61.1269L85.7049 61.1329L86.6129 61.552ZM96.5249 49.752L97.0649 50.5938L97.076 50.5865L96.5249 49.752ZM121.777 48.336L121.278 49.2029L121.287 49.2076L121.295 49.2122L121.777 48.336ZM128.975 55.534L128.094 56.0081L129.975 55.534H128.975ZM128.975 46.448V45.448H127.975V46.448H128.975ZM155.053 46.448H156.053V45.448H155.053V46.448ZM155.053 113V114H156.053V113H155.053ZM128.975 113H127.975V114H128.975V113ZM128.975 103.914H129.975L128.094 103.44L128.975 103.914ZM121.777 111.23L122.259 112.106L122.267 112.102L122.275 112.097L121.777 111.23ZM96.5249 109.814L95.9738 110.649L95.9849 110.656L96.5249 109.814ZM86.6129 98.014L85.7025 98.4278L85.7063 98.4362L85.7103 98.4445L86.6129 98.014ZM126.261 71.464L126.997 70.7869L126.997 70.7869L126.261 71.464ZM112.337 71.464L111.601 70.7869L111.601 70.7869L112.337 71.464ZM112.337 87.984L111.601 88.6611L112.337 87.984ZM84.0729 79.724C84.0729 72.8331 85.2344 66.9251 87.5209 61.9711L85.7049 61.1329C83.2714 66.4056 82.0729 72.6122 82.0729 79.724H84.0729ZM87.518 61.9771C89.8895 56.9281 93.0778 53.1514 97.0648 50.5937L95.9849 48.9103C91.6333 51.7019 88.2136 55.7919 85.7078 61.1269L87.518 61.9771ZM97.076 50.5865C101.075 47.9455 105.563 46.622 110.567 46.622V44.622C105.187 44.622 100.313 46.0518 95.9738 48.9175L97.076 50.5865ZM110.567 46.622C114.752 46.622 118.31 47.4961 121.278 49.2029L122.275 47.4691C118.95 45.5572 115.035 44.622 110.567 44.622V46.622ZM121.295 49.2122C124.278 50.853 126.537 53.1151 128.094 56.0081L129.855 55.0599C128.109 51.8169 125.569 49.2803 122.259 47.4598L121.295 49.2122ZM129.975 55.534V46.448H127.975V55.534H129.975ZM128.975 47.448H155.053V45.448H128.975V47.448ZM154.053 46.448V113H156.053V46.448H154.053ZM155.053 112H128.975V114H155.053V112ZM129.975 113V103.914H127.975V113H129.975ZM128.094 103.44C126.534 106.337 124.271 108.643 121.278 110.363L122.275 112.097C125.576 110.199 128.111 107.627 129.855 104.388L128.094 103.44ZM121.295 110.354C118.323 111.988 114.759 112.826 110.567 112.826V114.826C115.028 114.826 118.937 113.933 122.259 112.106L121.295 110.354ZM110.567 112.826C105.557 112.826 101.065 111.539 97.0648 108.972L95.9849 110.656C100.323 113.439 105.193 114.826 110.567 114.826V112.826ZM97.076 108.98C93.0778 106.339 89.8866 102.555 87.5155 97.5835L85.7103 98.4445C88.2165 103.699 91.6333 107.782 95.9738 110.648L97.076 108.98ZM87.5233 97.6002C85.2342 92.5642 84.0729 86.6143 84.0729 79.724H82.0729C82.0729 86.8364 83.2716 93.0798 85.7025 98.4278L87.5233 97.6002ZM129.975 79.724C129.975 76.0165 129.025 72.9915 126.997 70.7869L125.525 72.1411C127.115 73.8698 127.975 76.3515 127.975 79.724H129.975ZM126.997 70.7869C124.986 68.601 122.392 67.514 119.299 67.514V69.514C121.87 69.514 123.917 70.3937 125.525 72.1411L126.997 70.7869ZM119.299 67.514C116.206 67.514 113.612 68.601 111.601 70.7869L113.073 72.1411C114.68 70.3937 116.728 69.514 119.299 69.514V67.514ZM111.601 70.7869C109.573 72.9915 108.623 76.0165 108.623 79.724H110.623C110.623 76.3515 111.482 73.8698 113.073 72.1411L111.601 70.7869ZM108.623 79.724C108.623 83.4315 109.573 86.4565 111.601 88.6611L113.073 87.3069C111.482 85.5781 110.623 83.0965 110.623 79.724H108.623ZM111.601 88.6611C113.612 90.847 116.206 91.934 119.299 91.934V89.934C116.728 89.934 114.68 89.0543 113.073 87.3069L111.601 88.6611ZM119.299 91.934C122.392 91.934 124.986 90.847 126.997 88.6611L125.525 87.3069C123.917 89.0543 121.87 89.934 119.299 89.934V91.934ZM126.997 88.6611C129.025 86.4565 129.975 83.4315 129.975 79.724H127.975C127.975 83.0965 127.115 85.5781 125.525 87.3069L126.997 88.6611ZM193.012 25.68H194.012V24.68H193.012V25.68ZM193.012 113V114H194.012V113H193.012ZM166.816 113H165.816V114H166.816V113ZM166.816 25.68V24.68H165.816V25.68H166.816ZM192.012 25.68V113H194.012V25.68H192.012ZM193.012 112H166.816V114H193.012V112ZM167.816 113V25.68H165.816V113H167.816ZM166.816 26.68H193.012V24.68H166.816V26.68ZM247.441 113L246.591 113.526L246.884 114H247.441V113ZM231.039 86.45L231.89 85.9244L230.039 82.9286V86.45H231.039ZM231.039 113V114H232.039V113H231.039ZM204.843 113H203.843V114H204.843V113ZM204.843 25.68V24.68H203.843V25.68H204.843ZM231.039 25.68H232.039V24.68H231.039V25.68ZM231.039 71.346H230.039V74.6423L231.871 71.9016L231.039 71.346ZM247.677 46.448V45.448H247.143L246.846 45.8924L247.677 46.448ZM278.121 46.448L278.924 47.0444L280.11 45.448H278.121V46.448ZM253.223 79.96L252.421 79.3636L251.969 79.9713L252.432 80.5708L253.223 79.96ZM278.711 113V114H280.746L279.503 112.389L278.711 113ZM248.292 112.474L231.89 85.9244L230.189 86.9756L246.591 113.526L248.292 112.474ZM230.039 86.45V113H232.039V86.45H230.039ZM231.039 112H204.843V114H231.039V112ZM205.843 113V25.68H203.843V113H205.843ZM204.843 26.68H231.039V24.68H204.843V26.68ZM230.039 25.68V71.346H232.039V25.68H230.039ZM231.871 71.9016L248.509 47.0036L246.846 45.8924L230.208 70.7904L231.871 71.9016ZM247.677 47.448H278.121V45.448H247.677V47.448ZM277.319 45.8516L252.421 79.3636L254.026 80.5564L278.924 47.0444L277.319 45.8516ZM252.432 80.5708L277.92 113.611L279.503 112.389L254.015 79.3492L252.432 80.5708ZM278.711 112H247.441V114H278.711V112ZM297.448 110.758L297.055 111.678L297.061 111.68L297.448 110.758ZM281.164 89.99V88.99H280.074L280.167 90.0759L281.164 89.99ZM306.298 89.99L307.285 89.832L307.15 88.99H306.298V89.99ZM308.776 94.356L308.199 95.173L308.21 95.1807L308.221 95.188L308.776 94.356ZM317.272 94.946L317.845 95.7652L317.871 95.7469L317.896 95.7269L317.272 94.946ZM307.596 87.394L307.792 86.4134L307.789 86.4128L307.596 87.394ZM295.678 84.326L295.34 85.2672L295.347 85.2699L295.678 84.326ZM287.536 78.662L286.775 79.3109L286.78 79.3173L286.786 79.3236L287.536 78.662ZM287.3 56.478L286.462 55.9323L286.458 55.9372L287.3 56.478ZM296.976 48.572L297.382 49.4858L297.389 49.4827L297.396 49.4795L296.976 48.572ZM333.438 52.23L332.779 52.9826L332.785 52.9876L333.438 52.23ZM342.642 69.458V70.458H343.796L343.631 69.315L342.642 69.458ZM319.396 69.458L318.418 69.6704L318.59 70.458H319.396V69.458ZM316.918 65.328L316.287 66.1041L316.302 66.1164L316.318 66.128L316.918 65.328ZM308.776 64.62L309.33 65.452L309.361 65.4318L309.389 65.4093L308.776 64.62ZM310.192 69.93L309.798 70.8491L309.816 70.8572L309.836 70.8645L310.192 69.93ZM318.098 71.936L318.291 70.9548L318.29 70.9546L318.098 71.936ZM330.252 75.122L329.915 76.0637L329.915 76.0637L330.252 75.122ZM338.866 81.258L338.099 81.9003L338.108 81.9105L338.866 81.258ZM339.102 103.678L339.911 104.265L339.911 104.265L339.102 103.678ZM329.19 111.112L328.804 110.189L328.798 110.192L329.19 111.112ZM314.204 112.826C308.018 112.826 302.568 111.821 297.834 109.836L297.061 111.68C302.082 113.786 307.802 114.826 314.204 114.826V112.826ZM297.84 109.838C293.175 107.85 289.504 105.114 286.789 101.646L285.214 102.878C288.163 106.647 292.123 109.575 297.055 111.678L297.84 109.838ZM286.789 101.646C284.076 98.1793 282.536 94.2728 282.16 89.9041L280.167 90.0759C280.577 94.8326 282.263 99.1074 285.214 102.878L286.789 101.646ZM281.164 90.99H306.298V88.99H281.164V90.99ZM305.31 90.148C305.657 92.319 306.595 94.0409 308.199 95.173L309.352 93.539C308.281 92.7831 307.567 91.5943 307.285 89.832L305.31 90.148ZM308.221 95.188C309.838 96.2659 311.813 96.772 314.086 96.772V94.772C312.11 94.772 310.545 94.3341 309.33 93.5239L308.221 95.188ZM314.086 96.772C315.55 96.772 316.836 96.4716 317.845 95.7652L316.698 94.1268C316.134 94.5218 315.296 94.772 314.086 94.772V96.772ZM317.896 95.7269C318.876 94.9427 319.452 93.925 319.452 92.704H317.452C317.452 93.2137 317.24 93.6906 316.647 94.1651L317.896 95.7269ZM319.452 92.704C319.452 91.7604 319.186 90.8986 318.621 90.1726C318.066 89.4584 317.274 88.9434 316.33 88.5835L315.618 90.4525C316.325 90.722 316.772 91.0526 317.043 91.4004C317.304 91.7364 317.452 92.153 317.452 92.704H319.452ZM316.33 88.5835C314.593 87.922 311.729 87.2008 307.792 86.4134L307.399 88.3746C311.329 89.1605 314.05 89.8554 315.618 90.4525L316.33 88.5835ZM307.789 86.4128C303.017 85.4742 299.094 84.4624 296.008 83.3821L295.347 85.2699C298.554 86.3923 302.577 87.4258 307.403 88.3752L307.789 86.4128ZM296.015 83.3848C293.121 82.3457 290.545 80.5608 288.285 78.0004L286.786 79.3236C289.246 82.1125 292.098 84.1036 295.34 85.2672L296.015 83.3848ZM288.296 78.0131C286.215 75.5733 285.114 72.1342 285.114 67.57H283.114C283.114 72.4458 284.293 76.4014 286.775 79.3109L288.296 78.0131ZM285.114 67.57C285.114 63.6627 286.125 60.1546 288.141 57.0188L286.458 55.9372C284.226 59.4094 283.114 63.296 283.114 67.57H285.114ZM288.138 57.0237C290.22 53.8263 293.283 51.3076 297.382 49.4858L296.569 47.6582C292.172 49.6124 288.785 52.3644 286.462 55.9323L288.138 57.0237ZM297.396 49.4795C301.479 47.5889 306.48 46.622 312.434 46.622V44.622C306.272 44.622 300.968 45.6218 296.555 47.6645L297.396 49.4795ZM312.434 46.622C321.243 46.622 327.981 48.7842 332.779 52.9826L334.096 51.4774C328.825 46.8651 321.56 44.622 312.434 44.622V46.622ZM332.785 52.9876C337.704 57.2255 340.661 62.7442 341.652 69.601L343.631 69.315C342.576 62.0118 339.398 56.0452 334.09 51.4724L332.785 52.9876ZM342.642 68.458H319.396V70.458H342.642V68.458ZM320.373 69.2456C319.938 67.2452 319.001 65.641 317.518 64.528L316.318 66.128C317.351 66.903 318.067 68.0521 318.418 69.6704L320.373 69.2456ZM317.548 64.5519C316.063 63.3448 314.125 62.794 311.844 62.794V64.794C313.81 64.794 315.255 65.2659 316.287 66.1041L317.548 64.5519ZM311.844 62.794C310.388 62.794 309.113 63.0908 308.162 63.8306L309.389 65.4093C309.854 65.0479 310.624 64.794 311.844 64.794V62.794ZM308.221 63.7879C307.176 64.4846 306.714 65.5825 306.714 66.862H308.714C308.714 66.0962 308.959 65.6994 309.33 65.452L308.221 63.7879ZM306.714 66.862C306.714 67.755 306.996 68.5678 307.555 69.2603C308.101 69.9364 308.874 70.4534 309.798 70.8491L310.585 69.0109C309.857 68.6986 309.391 68.3503 309.111 68.0037C308.844 67.6735 308.714 67.3063 308.714 66.862H306.714ZM309.836 70.8645C311.572 71.5259 314.277 72.2075 317.906 72.9174L318.29 70.9546C314.68 70.2484 312.115 69.5927 310.548 68.9955L309.836 70.8645ZM317.905 72.9172C322.672 73.855 326.672 74.9055 329.915 76.0637L330.588 74.1803C327.223 72.9785 323.121 71.905 318.291 70.9548L317.905 72.9172ZM329.915 76.0637C333.038 77.179 335.765 79.1143 338.099 81.9002L339.632 80.6158C337.089 77.5804 334.073 75.425 330.588 74.1803L329.915 76.0637ZM338.108 81.9105C340.343 84.5063 341.524 88.1791 341.524 93.058H343.524C343.524 87.8676 342.265 83.6737 339.623 80.6055L338.108 81.9105ZM341.524 93.058C341.524 96.7832 340.448 100.117 338.292 103.091L339.911 104.265C342.318 100.945 343.524 97.1994 343.524 93.058H341.524ZM338.292 103.091C336.139 106.061 332.996 108.436 328.804 110.189L329.575 112.035C334.036 110.169 337.502 107.588 339.911 104.265L338.292 103.091ZM328.798 110.192C324.7 111.937 319.843 112.826 314.204 112.826V114.826C320.049 114.826 325.183 113.905 329.581 112.032L328.798 110.192ZM380.876 106.864L380.286 107.671L380.297 107.679L380.876 106.864ZM370.374 86.214V85.214H369.312L369.376 86.2748L370.374 86.214ZM398.222 86.214L399.219 86.1323L399.144 85.214H398.222V86.214ZM408.134 92.468L408.689 93.3L408.696 93.2952L408.704 93.2902L408.134 92.468ZM406.482 84.562L405.973 85.4223L405.984 85.4294L405.997 85.4362L406.482 84.562ZM396.57 80.314L396.237 81.257L396.239 81.2576L396.57 80.314ZM383.236 74.768L382.773 75.6543L382.781 75.6584L383.236 74.768ZM374.268 66.862L375.077 66.2738L375.077 66.2738L374.268 66.862ZM370.61 53.528L371.61 53.5425L371.61 53.5352V53.528H370.61ZM374.74 39.722L373.934 39.1299L373.932 39.1328L374.74 39.722ZM386.186 30.99L385.812 30.0625L385.807 30.0647L386.186 30.99ZM426.896 35.12L426.277 35.9049L426.282 35.9088L426.896 35.12ZM436.454 55.062V56.062H437.492L437.454 55.0253L436.454 55.062ZM408.252 55.062L407.253 55.0953L407.285 56.062H408.252V55.062ZM406.482 49.988L407.163 49.2552L406.482 49.988ZM399.756 49.634L400.463 50.3411L400.482 50.3225L400.5 50.303L399.756 49.634ZM401.762 57.422L401.238 58.2737L401.257 58.2853L401.277 58.2962L401.762 57.422ZM411.792 61.788L411.438 62.723L411.443 62.7249L411.792 61.788ZM424.772 67.452L424.301 68.3338L424.309 68.3382L424.772 67.452ZM433.74 75.004L432.952 75.6193L432.952 75.6193L433.74 75.004ZM433.74 100.964L434.587 101.496L434.592 101.488L433.74 100.964ZM422.766 110.404L422.337 109.501L422.766 110.404ZM405.656 112.826C395.821 112.826 387.778 110.543 381.456 106.049L380.297 107.679C387.033 112.468 395.51 114.826 405.656 114.826V112.826ZM381.467 106.057C375.29 101.538 371.908 94.9476 371.372 86.1532L369.376 86.2748C369.942 95.5738 373.561 102.75 380.286 107.671L381.467 106.057ZM370.374 87.214H398.222V85.214H370.374V87.214ZM397.226 86.2957C397.432 88.8076 398.1 90.8507 399.362 92.2753C400.652 93.7327 402.444 94.412 404.594 94.412V92.412C402.89 92.412 401.693 91.8916 400.859 90.9497C399.996 89.975 399.406 88.419 399.219 86.1323L397.226 86.2957ZM404.594 94.412C406.159 94.412 407.544 94.0633 408.689 93.3L407.58 91.6359C406.836 92.1314 405.862 92.412 404.594 92.412V94.412ZM408.704 93.2902C410.037 92.3673 410.668 90.9735 410.668 89.282H408.668C408.668 90.4225 408.277 91.1527 407.565 91.6458L408.704 93.2902ZM410.668 89.282C410.668 86.8615 409.321 84.9953 406.968 83.6878L405.997 85.4362C407.891 86.4887 408.668 87.7692 408.668 89.282H410.668ZM406.992 83.7017C404.781 82.3914 401.402 80.9495 396.901 79.3704L396.239 81.2576C400.707 82.8252 403.936 84.2152 405.973 85.4223L406.992 83.7017ZM396.903 79.371C391.58 77.4921 387.179 75.6602 383.691 73.8776L382.781 75.6584C386.373 77.4945 390.862 79.3599 396.237 81.257L396.903 79.371ZM383.7 73.8818C380.388 72.1505 377.513 69.6226 375.077 66.2738L373.46 67.4502C376.059 71.024 379.162 73.7669 382.773 75.6542L383.7 73.8818ZM375.077 66.2738C372.718 63.0295 371.534 58.8128 371.61 53.5425L369.61 53.5135C369.529 59.0991 370.784 63.7718 373.46 67.4502L375.077 66.2738ZM371.61 53.528C371.61 48.2764 372.939 43.8895 375.548 40.3112L373.932 39.1328C371.035 43.1065 369.61 47.9236 369.61 53.528H371.61ZM375.546 40.3141C378.26 36.62 381.922 33.8183 386.566 31.9153L385.807 30.0647C380.853 32.095 376.884 35.1146 373.934 39.1299L375.546 40.3141ZM386.56 31.9174C391.302 30.0054 396.64 29.04 402.588 29.04V27.04C396.422 27.04 390.825 28.0413 385.812 30.0626L386.56 31.9174ZM402.588 29.04C412.667 29.04 420.527 31.3653 426.277 35.9049L427.516 34.3351C421.309 29.4347 412.963 27.04 402.588 27.04V29.04ZM426.282 35.9088C432.077 40.4245 435.15 46.7802 435.455 55.0987L437.454 55.0253C437.13 46.1944 433.83 39.2555 427.511 34.3312L426.282 35.9088ZM436.454 54.062H408.252V56.062H436.454V54.062ZM409.252 55.0287C409.169 52.55 408.546 50.5397 407.163 49.2552L405.802 50.7208C406.621 51.4816 407.178 52.854 407.253 55.0953L409.252 55.0287ZM407.163 49.2552C405.867 48.0521 404.283 47.454 402.47 47.454V49.454C403.804 49.454 404.895 49.8785 405.802 50.7208L407.163 49.2552ZM402.47 47.454C401.099 47.454 399.919 47.9581 399.013 48.965L400.5 50.303C401.009 49.7365 401.639 49.454 402.47 49.454V47.454ZM399.049 48.9269C398.097 49.8787 397.694 51.1914 397.694 52.702H399.694C399.694 51.538 399.999 50.8053 400.463 50.3411L399.049 48.9269ZM397.694 52.702C397.694 55.0331 398.989 56.8896 401.238 58.2737L402.286 56.5703C400.445 55.437 399.694 54.1469 399.694 52.702H397.694ZM401.277 58.2962C403.466 59.5127 406.865 60.9887 411.438 62.723L412.147 60.853C407.594 59.126 404.306 57.6913 402.248 56.5478L401.277 58.2962ZM411.443 62.7249C416.689 64.6824 420.971 66.5528 424.301 68.3338L425.244 66.5702C421.808 64.7326 417.437 62.8269 412.142 60.8511L411.443 62.7249ZM424.309 68.3382C427.638 70.0783 430.518 72.5009 432.952 75.6193L434.529 74.3887C431.928 71.0564 428.829 68.4443 425.236 66.5658L424.309 68.3382ZM432.952 75.6193C435.307 78.6368 436.516 82.4593 436.516 87.158H438.516C438.516 82.1021 437.208 77.8218 434.529 74.3887L432.952 75.6193ZM436.516 87.158C436.516 92.0987 435.303 96.5171 432.889 100.44L434.592 101.488C437.213 97.2295 438.516 92.4439 438.516 87.158H436.516ZM432.893 100.433C430.489 104.264 426.985 107.291 422.337 109.501L423.196 111.307C428.145 108.954 431.957 105.688 434.587 101.495L432.893 100.433ZM422.337 109.501C417.701 111.705 412.151 112.826 405.656 112.826V114.826C412.378 114.826 418.234 113.666 423.196 111.307L422.337 109.501ZM511.148 53.646L510.379 54.285L510.385 54.2919L511.148 53.646ZM517.638 113V114H518.638V113H517.638ZM491.56 113H490.56V114H491.56V113ZM488.964 70.284L488.212 70.9425L488.226 70.9592L488.242 70.9752L488.964 70.284ZM475.394 70.284L476.133 70.9583L476.14 70.9505L476.147 70.9425L475.394 70.284ZM472.916 113V114H473.916V113H472.916ZM446.72 113H445.72V114H446.72V113ZM446.72 25.68V24.68H445.72V25.68H446.72ZM472.916 25.68H473.916V24.68H472.916V25.68ZM472.916 56.596H471.916V59.9694L473.755 57.141L472.916 56.596ZM481.058 48.926L480.564 48.0565L480.556 48.0615L481.058 48.926ZM493.33 46.976C500.713 46.976 506.35 49.4357 510.379 54.285L511.918 53.007C507.45 47.6296 501.209 44.976 493.33 44.976V46.976ZM510.385 54.2919C514.517 59.1759 516.638 65.8455 516.638 74.414H518.638C518.638 65.5185 516.432 58.3428 511.912 53.0001L510.385 54.2919ZM516.638 74.414V113H518.638V74.414H516.638ZM517.638 112H491.56V114H517.638V112ZM492.56 113V77.718H490.56V113H492.56ZM492.56 77.718C492.56 74.3831 491.638 71.6329 489.687 69.5928L488.242 70.9752C489.752 72.5538 490.56 74.7596 490.56 77.718H492.56ZM489.717 69.6255C487.849 67.4911 485.317 66.452 482.238 66.452V68.452C484.823 68.452 486.775 69.3009 488.212 70.9425L489.717 69.6255ZM482.238 66.452C479.09 66.452 476.515 67.4848 474.642 69.6255L476.147 70.9425C477.578 69.3072 479.565 68.452 482.238 68.452V66.452ZM474.656 69.6097C472.792 71.6511 471.916 74.3951 471.916 77.718H473.916C473.916 74.7476 474.693 72.5356 476.133 70.9583L474.656 69.6097ZM471.916 77.718V113H473.916V77.718H471.916ZM472.916 112H446.72V114H472.916V112ZM447.72 113V25.68H445.72V113H447.72ZM446.72 26.68H472.916V24.68H446.72V26.68ZM471.916 25.68V56.596H473.916V25.68H471.916ZM473.755 57.141C475.711 54.1313 478.308 51.6819 481.561 49.7905L480.556 48.0615C477.044 50.1034 474.212 52.7674 472.078 56.051L473.755 57.141ZM481.552 49.7955C484.837 47.929 488.751 46.976 493.33 46.976V44.976C488.469 44.976 484.202 45.9897 480.564 48.0565L481.552 49.7955ZM528.998 61.552L528.093 61.1269L528.09 61.1329L528.998 61.552ZM538.91 49.752L539.45 50.5938L539.461 50.5865L538.91 49.752ZM564.162 48.336L563.663 49.2029L563.671 49.2076L563.68 49.2122L564.162 48.336ZM571.36 55.534L570.479 56.0081L572.36 55.534H571.36ZM571.36 46.448V45.448H570.36V46.448H571.36ZM597.438 46.448H598.438V45.448H597.438V46.448ZM597.438 113V114H598.438V113H597.438ZM571.36 113H570.36V114H571.36V113ZM571.36 103.914H572.36L570.479 103.44L571.36 103.914ZM564.162 111.23L564.644 112.106L564.652 112.102L564.66 112.097L564.162 111.23ZM538.91 109.814L538.359 110.649L538.37 110.656L538.91 109.814ZM528.998 98.014L528.087 98.4278L528.091 98.4362L528.095 98.4445L528.998 98.014ZM568.646 71.464L569.382 70.7869L569.382 70.7869L568.646 71.464ZM554.722 71.464L553.986 70.7869L553.986 70.7869L554.722 71.464ZM554.722 87.984L553.986 88.6611L554.722 87.984ZM526.458 79.724C526.458 72.8331 527.619 66.9251 529.906 61.9711L528.09 61.1329C525.656 66.4056 524.458 72.6122 524.458 79.724H526.458ZM529.903 61.9771C532.274 56.9281 535.463 53.1514 539.45 50.5937L538.37 48.9103C534.018 51.7019 530.598 55.7919 528.093 61.1269L529.903 61.9771ZM539.461 50.5865C543.46 47.9455 547.947 46.622 552.952 46.622V44.622C547.572 44.622 542.698 46.0518 538.359 48.9175L539.461 50.5865ZM552.952 46.622C557.137 46.622 560.695 47.4961 563.663 49.2029L564.66 47.4691C561.335 45.5572 557.42 44.622 552.952 44.622V46.622ZM563.68 49.2122C566.663 50.853 568.921 53.1151 570.479 56.0081L572.24 55.0599C570.494 51.8169 567.954 49.2803 564.644 47.4598L563.68 49.2122ZM572.36 55.534V46.448H570.36V55.534H572.36ZM571.36 47.448H597.438V45.448H571.36V47.448ZM596.438 46.448V113H598.438V46.448H596.438ZM597.438 112H571.36V114H597.438V112ZM572.36 113V103.914H570.36V113H572.36ZM570.479 103.44C568.919 106.337 566.655 108.643 563.663 110.363L564.66 112.097C567.961 110.199 570.496 107.627 572.24 104.388L570.479 103.44ZM563.68 110.354C560.708 111.988 557.144 112.826 552.952 112.826V114.826C557.412 114.826 561.322 113.933 564.644 112.106L563.68 110.354ZM552.952 112.826C547.941 112.826 543.45 111.539 539.45 108.972L538.37 110.656C542.708 113.439 547.578 114.826 552.952 114.826V112.826ZM539.461 108.98C535.463 106.339 532.271 102.555 529.9 97.5835L528.095 98.4445C530.601 103.699 534.018 107.782 538.359 110.648L539.461 108.98ZM529.908 97.6002C527.619 92.5642 526.458 86.6143 526.458 79.724H524.458C524.458 86.8364 525.656 93.0798 528.087 98.4278L529.908 97.6002ZM572.36 79.724C572.36 76.0165 571.41 72.9915 569.382 70.7869L567.91 72.1411C569.5 73.8698 570.36 76.3515 570.36 79.724H572.36ZM569.382 70.7869C567.371 68.601 564.777 67.514 561.684 67.514V69.514C564.255 69.514 566.302 70.3937 567.91 72.1411L569.382 70.7869ZM561.684 67.514C558.591 67.514 555.997 68.601 553.986 70.7869L555.458 72.1411C557.065 70.3937 559.113 69.514 561.684 69.514V67.514ZM553.986 70.7869C551.958 72.9915 551.008 76.0165 551.008 79.724H553.008C553.008 76.3515 553.867 73.8698 555.458 72.1411L553.986 70.7869ZM551.008 79.724C551.008 83.4315 551.958 86.4565 553.986 88.6611L555.458 87.3069C553.867 85.5781 553.008 83.0965 553.008 79.724H551.008ZM553.986 88.6611C555.997 90.847 558.591 91.934 561.684 91.934V89.934C559.113 89.934 557.065 89.0543 555.458 87.3069L553.986 88.6611ZM561.684 91.934C564.777 91.934 567.371 90.847 569.382 88.6611L567.91 87.3069C566.302 89.0543 564.255 89.934 561.684 89.934V91.934ZM569.382 88.6611C571.41 86.4565 572.36 83.4315 572.36 79.724H570.36C570.36 83.0965 569.5 85.5781 567.91 87.3069L569.382 88.6611ZM635.397 58.72H634.397V61.9153L636.218 59.2901L635.397 58.72ZM645.191 49.516L645.7 50.3766L645.707 50.3728L645.713 50.3688L645.191 49.516ZM657.227 45.976H658.227V44.976H657.227V45.976ZM657.227 73.942V74.942H658.227V73.942H657.227ZM638.819 76.538L638.227 75.7316L638.221 75.7364L638.214 75.7413L638.819 76.538ZM635.397 113V114H636.397V113H635.397ZM609.201 113H608.201V114H609.201V113ZM609.201 46.448V45.448H608.201V46.448H609.201ZM635.397 46.448H636.397V45.448H635.397V46.448ZM636.218 59.2901C638.815 55.5478 641.975 52.5812 645.7 50.3766L644.681 48.6554C640.697 51.0135 637.328 54.1828 634.575 58.1499L636.218 59.2901ZM645.713 50.3688C649.424 48.0967 653.257 46.976 657.227 46.976V44.976C652.858 44.976 648.667 46.2153 644.669 48.6631L645.713 50.3688ZM656.227 45.976V73.942H658.227V45.976H656.227ZM657.227 72.942H649.793V74.942H657.227V72.942ZM649.793 72.942C644.757 72.942 640.842 73.8144 638.227 75.7316L639.41 77.3444C641.516 75.8002 644.917 74.942 649.793 74.942V72.942ZM638.214 75.7413C635.573 77.7453 634.397 81.1963 634.397 85.742H636.397C636.397 81.4771 637.502 78.792 639.423 77.3347L638.214 75.7413ZM634.397 85.742V113H636.397V85.742H634.397ZM635.397 112H609.201V114H635.397V112ZM610.201 113V46.448H608.201V113H610.201ZM609.201 47.448H635.397V45.448H609.201V47.448ZM634.397 46.448V58.72H636.397V46.448H634.397ZM666.525 37.48L667.188 36.7314L667.188 36.7314L666.525 37.48ZM666.525 18.954L667.188 19.7026L667.194 19.6973L667.2 19.692L666.525 18.954ZM688.355 18.954L687.68 19.692L687.686 19.6973L687.692 19.7026L688.355 18.954ZM688.355 37.48L687.692 36.7314L687.692 36.7314L688.355 37.48ZM690.479 46.448H691.479V45.448H690.479V46.448ZM690.479 113V114H691.479V113H690.479ZM664.283 113H663.283V114H664.283V113ZM664.283 46.448V45.448H663.283V46.448H664.283ZM677.499 40.138C673.119 40.138 669.717 38.9717 667.188 36.7314L665.862 38.2286C668.839 40.8656 672.753 42.138 677.499 42.138V40.138ZM667.188 36.7314C664.65 34.4837 663.395 31.6888 663.395 28.276H661.395C661.395 32.2579 662.893 35.599 665.862 38.2286L667.188 36.7314ZM663.395 28.276C663.395 24.7775 664.655 21.9458 667.188 19.7026L665.862 18.2054C662.888 20.8396 661.395 24.2224 661.395 28.276H663.395ZM667.2 19.692C669.73 17.3789 673.127 16.178 677.499 16.178V14.178C672.745 14.178 668.827 15.4944 665.85 18.216L667.2 19.692ZM677.499 16.178C681.786 16.178 685.147 17.376 687.68 19.692L689.03 18.216C686.056 15.4973 682.179 14.178 677.499 14.178V16.178ZM687.692 19.7026C690.224 21.9458 691.485 24.7775 691.485 28.276H693.485C693.485 24.2224 691.992 20.8396 689.018 18.2054L687.692 19.7026ZM691.485 28.276C691.485 31.6888 690.23 34.4837 687.692 36.7314L689.018 38.2286C691.987 35.599 693.485 32.2579 693.485 28.276H691.485ZM687.692 36.7314C685.159 38.9745 681.794 40.138 677.499 40.138V42.138C682.171 42.138 686.044 40.8629 689.018 38.2286L687.692 36.7314ZM689.479 46.448V113H691.479V46.448H689.479ZM690.479 112H664.283V114H690.479V112ZM665.283 113V46.448H663.283V113H665.283ZM664.283 47.448H690.479V45.448H664.283V47.448ZM766.738 53.646L765.969 54.285L765.975 54.2919L766.738 53.646ZM773.228 113V114H774.228V113H773.228ZM747.15 113H746.15V114H747.15V113ZM744.554 70.284L743.802 70.9425L743.816 70.9592L743.832 70.9752L744.554 70.284ZM730.984 70.284L731.723 70.9583L731.73 70.9505L731.737 70.9425L730.984 70.284ZM728.506 113V114H729.506V113H728.506ZM702.31 113H701.31V114H702.31V113ZM702.31 46.448V45.448H701.31V46.448H702.31ZM728.506 46.448H729.506V45.448H728.506V46.448ZM728.506 56.596H727.506V59.9694L729.345 57.141L728.506 56.596ZM736.648 48.926L736.154 48.0565L736.146 48.0615L736.648 48.926ZM748.92 46.976C756.303 46.976 761.94 49.4357 765.969 54.285L767.507 53.007C763.04 47.6296 756.799 44.976 748.92 44.976V46.976ZM765.975 54.2919C770.107 59.1759 772.228 65.8455 772.228 74.414H774.228C774.228 65.5185 772.022 58.3428 767.502 53.0001L765.975 54.2919ZM772.228 74.414V113H774.228V74.414H772.228ZM773.228 112H747.15V114H773.228V112ZM748.15 113V77.718H746.15V113H748.15ZM748.15 77.718C748.15 74.3831 747.228 71.6329 745.277 69.5928L743.832 70.9752C745.341 72.5538 746.15 74.7596 746.15 77.718H748.15ZM745.307 69.6255C743.439 67.4911 740.907 66.452 737.828 66.452V68.452C740.413 68.452 742.365 69.3009 743.802 70.9425L745.307 69.6255ZM737.828 66.452C734.68 66.452 732.105 67.4848 730.232 69.6255L731.737 70.9425C733.168 69.3072 735.155 68.452 737.828 68.452V66.452ZM730.246 69.6097C728.382 71.6511 727.506 74.3951 727.506 77.718H729.506C729.506 74.7476 730.282 72.5356 731.723 70.9583L730.246 69.6097ZM727.506 77.718V113H729.506V77.718H727.506ZM728.506 112H702.31V114H728.506V112ZM703.31 113V46.448H701.31V113H703.31ZM702.31 47.448H728.506V45.448H702.31V47.448ZM727.506 46.448V56.596H729.506V46.448H727.506ZM729.345 57.141C731.301 54.1313 733.898 51.6819 737.151 49.7905L736.146 48.0615C732.633 50.1034 729.802 52.7674 727.668 56.051L729.345 57.141ZM737.142 49.7955C740.427 47.929 744.341 46.976 748.92 46.976V44.976C744.059 44.976 739.792 45.9897 736.154 48.0565L737.142 49.7955ZM819.752 48.336L819.253 49.2029L819.261 49.2076L819.27 49.2122L819.752 48.336ZM826.95 55.534L826.069 56.0081L827.95 55.534H826.95ZM826.95 46.448V45.448H825.95V46.448H826.95ZM853.028 46.448H854.028V45.448H853.028V46.448ZM849.606 128.812L848.692 128.405L848.692 128.405L849.606 128.812ZM838.514 141.084L837.999 140.226L837.993 140.23L838.514 141.084ZM793.556 138.134L794.18 137.353L794.179 137.352L793.556 138.134ZM782.936 117.838V116.838H781.83L781.941 117.938L782.936 117.838ZM808.66 117.838L809.639 117.638L809.476 116.838H808.66V117.838ZM824.354 120.67L825.026 121.41L825.026 121.41L824.354 120.67ZM826.95 103.914H827.95L826.069 103.44L826.95 103.914ZM819.752 111.23L820.233 112.106L820.242 112.102L820.25 112.097L819.752 111.23ZM794.5 109.814L793.948 110.649L793.96 110.656L794.5 109.814ZM784.588 98.014L783.677 98.4278L783.681 98.4362L783.685 98.4445L784.588 98.014ZM784.588 61.552L783.682 61.1269L783.68 61.1329L784.588 61.552ZM794.5 49.752L795.04 50.5938L795.051 50.5865L794.5 49.752ZM824.236 71.464L824.971 70.7869L824.971 70.7869L824.236 71.464ZM810.312 71.464L809.576 70.7869L809.576 70.7869L810.312 71.464ZM810.312 87.984L809.576 88.6611L810.312 87.984ZM808.542 46.622C812.727 46.622 816.285 47.4961 819.253 49.2029L820.25 47.4691C816.925 45.5572 813.009 44.622 808.542 44.622V46.622ZM819.27 49.2122C822.253 50.853 824.511 53.1151 826.069 56.0081L827.83 55.0599C826.084 51.8169 823.543 49.2803 820.233 47.4598L819.27 49.2122ZM827.95 55.534V46.448H825.95V55.534H827.95ZM826.95 47.448H853.028V45.448H826.95V47.448ZM852.028 46.448V111.82H854.028V46.448H852.028ZM852.028 111.82C852.028 117.91 850.91 123.433 848.692 128.405L850.519 129.219C852.863 123.964 854.028 118.16 854.028 111.82H852.028ZM848.692 128.405C846.5 133.318 842.948 137.257 837.999 140.227L839.028 141.941C844.305 138.775 848.148 134.533 850.519 129.219L848.692 128.405ZM837.993 140.23C833.161 143.175 826.867 144.686 819.044 144.686V146.686C827.111 146.686 833.797 145.129 839.034 141.938L837.993 140.23ZM819.044 144.686C808.497 144.686 800.246 142.205 794.18 137.353L792.931 138.915C799.452 144.132 808.192 146.686 819.044 146.686V144.686ZM794.179 137.352C788.194 132.579 784.771 126.069 783.93 117.738L781.941 117.938C782.83 126.756 786.488 133.777 792.932 138.916L794.179 137.352ZM782.936 118.838H808.66V116.838H782.936V118.838ZM807.68 118.038C808.085 120.021 809.124 121.565 810.793 122.585C812.425 123.583 814.578 124.03 817.156 124.03V122.03C814.777 122.03 813.036 121.612 811.836 120.879C810.673 120.168 809.942 119.116 809.639 117.638L807.68 118.038ZM817.156 124.03C820.393 124.03 823.06 123.197 825.026 121.41L823.681 119.93C822.186 121.289 820.054 122.03 817.156 122.03V124.03ZM825.026 121.41C827.085 119.538 827.95 116.209 827.95 111.82H825.95C825.95 116.084 825.083 118.655 823.681 119.93L825.026 121.41ZM827.95 111.82V103.914H825.95V111.82H827.95ZM826.069 103.44C824.509 106.337 822.245 108.643 819.253 110.363L820.25 112.097C823.551 110.199 826.086 107.627 827.83 104.388L826.069 103.44ZM819.27 110.354C816.298 111.988 812.734 112.826 808.542 112.826V114.826C813.002 114.826 816.912 113.933 820.233 112.106L819.27 110.354ZM808.542 112.826C803.531 112.826 799.04 111.539 795.039 108.972L793.96 110.656C798.298 113.439 803.168 114.826 808.542 114.826V112.826ZM795.051 108.98C791.052 106.339 787.861 102.555 785.49 97.5835L783.685 98.4445C786.191 103.699 789.608 107.782 793.948 110.648L795.051 108.98ZM785.498 97.6002C783.209 92.5642 782.048 86.6143 782.048 79.724H780.048C780.048 86.8364 781.246 93.0798 783.677 98.4278L785.498 97.6002ZM782.048 79.724C782.048 72.8331 783.209 66.9251 785.495 61.9711L783.68 61.1329C781.246 66.4056 780.048 72.6122 780.048 79.724H782.048ZM785.493 61.9771C787.864 56.9281 791.052 53.1514 795.039 50.5937L793.96 48.9103C789.608 51.7019 786.188 55.7919 783.682 61.1269L785.493 61.9771ZM795.051 50.5865C799.05 47.9455 803.537 46.622 808.542 46.622V44.622C803.162 44.622 798.288 46.0518 793.948 48.9175L795.051 50.5865ZM827.95 79.724C827.95 76.0165 827 72.9915 824.971 70.7869L823.5 72.1411C825.09 73.8698 825.95 76.3515 825.95 79.724H827.95ZM824.971 70.7869C822.96 68.601 820.366 67.514 817.274 67.514V69.514C819.845 69.514 821.892 70.3937 823.5 72.1411L824.971 70.7869ZM817.274 67.514C814.181 67.514 811.587 68.601 809.576 70.7869L811.047 72.1411C812.655 70.3937 814.702 69.514 817.274 69.514V67.514ZM809.576 70.7869C807.547 72.9915 806.598 76.0165 806.598 79.724H808.598C808.598 76.3515 809.457 73.8698 811.047 72.1411L809.576 70.7869ZM806.598 79.724C806.598 83.4315 807.547 86.4565 809.576 88.6611L811.047 87.3069C809.457 85.5781 808.598 83.0965 808.598 79.724H806.598ZM809.576 88.6611C811.587 90.847 814.181 91.934 817.274 91.934V89.934C814.702 89.934 812.655 89.0543 811.047 87.3069L809.576 88.6611ZM817.274 91.934C820.366 91.934 822.96 90.847 824.971 88.6611L823.5 87.3069C821.892 89.0543 819.845 89.934 817.274 89.934V91.934ZM824.971 88.6611C827 86.4565 827.95 83.4315 827.95 79.724H825.95C825.95 83.0965 825.09 85.5781 823.5 87.3069L824.971 88.6611Z" fill="black"/>
</svg>
