<svg width="1329" height="168" viewBox="0 0 1329 168" fill="none" xmlns="http://www.w3.org/2000/svg">
<path fill-rule="evenodd" clip-rule="evenodd" d="M12 0C5.37258 0 0 5.37259 0 12V156C0 162.627 5.37256 168 12 168H1317C1323.63 168 1329 162.627 1329 156V12C1329 5.37258 1323.63 0 1317 0H12ZM73.5 57.2001C80.9 57.2001 87.3667 58.7001 92.9 61.7001C98.5 64.7001 102.8 68.8668 105.8 74.2001C108.8 79.5334 110.3 85.6001 110.3 92.4001C110.3 99.1334 108.8 105.2 105.8 110.6C102.8 116 98.5 120.267 92.9 123.4C87.3667 126.467 80.9 128 73.5 128H44V57.2001H73.5ZM71.5 108.2C76.5 108.2 80.4667 106.833 83.4 104.1C86.3333 101.367 87.8 97.4668 87.8 92.4001C87.8 87.3334 86.3333 83.4334 83.4 80.7001C80.4667 77.9668 76.5 76.6001 71.5 76.6001H66.2V108.2H71.5ZM145.116 128.7C139.45 128.7 134.35 127.533 129.816 125.2C125.283 122.867 121.716 119.533 119.116 115.2C116.583 110.8 115.316 105.667 115.316 99.8001C115.316 93.9334 116.583 88.8334 119.116 84.5001C121.716 80.1001 125.283 76.7334 129.816 74.4001C134.35 72.0668 139.45 70.9001 145.116 70.9001C150.783 70.9001 155.883 72.0668 160.416 74.4001C164.95 76.7334 168.483 80.1001 171.016 84.5001C173.616 88.8334 174.916 93.9334 174.916 99.8001C174.916 105.667 173.616 110.8 171.016 115.2C168.483 119.533 164.95 122.867 160.416 125.2C155.883 127.533 150.783 128.7 145.116 128.7ZM145.116 109.5C147.183 109.5 148.916 108.7 150.316 107.1C151.716 105.433 152.416 103 152.416 99.8001C152.416 96.6001 151.716 94.2001 150.316 92.6001C148.916 90.9334 147.183 90.1001 145.116 90.1001C143.05 90.1001 141.316 90.9334 139.916 92.6001C138.516 94.2001 137.816 96.6001 137.816 99.8001C137.816 103 138.483 105.433 139.816 107.1C141.216 108.7 142.983 109.5 145.116 109.5ZM254.091 128H229.091L222.291 96.2001L215.091 128H190.091L176.791 71.6001H198.791L203.491 105.9L210.791 71.6001H234.491L242.191 106.3L246.991 71.6001H267.491L254.091 128ZM311.723 71.2001C318.189 71.2001 323.223 73.3668 326.823 77.7001C330.489 82.0334 332.323 87.9001 332.323 95.3001V128H310.223V98.1001C310.223 95.4334 309.489 93.3334 308.023 91.8001C306.623 90.2001 304.723 89.4001 302.323 89.4001C299.856 89.4001 297.923 90.2001 296.523 91.8001C295.123 93.3334 294.423 95.4334 294.423 98.1001V128H272.223V71.6001H294.423V80.2001C296.156 77.5334 298.456 75.3668 301.323 73.7001C304.256 72.0334 307.723 71.2001 311.723 71.2001ZM364.149 54.0001V128H341.949V54.0001H364.149ZM400.976 128.7C395.309 128.7 390.209 127.533 385.676 125.2C381.142 122.867 377.576 119.533 374.976 115.2C372.442 110.8 371.176 105.667 371.176 99.8001C371.176 93.9334 372.442 88.8334 374.976 84.5001C377.576 80.1001 381.142 76.7334 385.676 74.4001C390.209 72.0668 395.309 70.9001 400.976 70.9001C406.642 70.9001 411.742 72.0668 416.276 74.4001C420.809 76.7334 424.342 80.1001 426.876 84.5001C429.476 88.8334 430.776 93.9334 430.776 99.8001C430.776 105.667 429.476 110.8 426.876 115.2C424.342 119.533 420.809 122.867 416.276 125.2C411.742 127.533 406.642 128.7 400.976 128.7ZM400.976 109.5C403.042 109.5 404.776 108.7 406.176 107.1C407.576 105.433 408.276 103 408.276 99.8001C408.276 96.6001 407.576 94.2001 406.176 92.6001C404.776 90.9334 403.042 90.1001 400.976 90.1001C398.909 90.1001 397.176 90.9334 395.776 92.6001C394.376 94.2001 393.676 96.6001 393.676 99.8001C393.676 103 394.342 105.433 395.676 107.1C397.076 108.7 398.842 109.5 400.976 109.5ZM434.75 99.8001C434.75 93.8668 435.75 88.7334 437.75 84.4001C439.817 80.0001 442.617 76.6668 446.15 74.4001C449.683 72.0668 453.65 70.9001 458.05 70.9001C461.717 70.9001 464.883 71.6668 467.55 73.2001C470.217 74.6668 472.25 76.7001 473.65 79.3001V71.6001H495.75V128H473.65V120.3C472.25 122.9 470.217 124.967 467.55 126.5C464.883 127.967 461.717 128.7 458.05 128.7C453.65 128.7 449.683 127.567 446.15 125.3C442.617 122.967 439.817 119.633 437.75 115.3C435.75 110.9 434.75 105.733 434.75 99.8001ZM473.65 99.8001C473.65 96.8001 472.883 94.4668 471.35 92.8001C469.817 91.1334 467.85 90.3001 465.45 90.3001C463.05 90.3001 461.083 91.1334 459.55 92.8001C458.017 94.4668 457.25 96.8001 457.25 99.8001C457.25 102.8 458.017 105.133 459.55 106.8C461.083 108.467 463.05 109.3 465.45 109.3C467.85 109.3 469.817 108.467 471.35 106.8C472.883 105.133 473.65 102.8 473.65 99.8001ZM502.719 99.8001C502.719 93.8668 503.719 88.7334 505.719 84.4001C507.785 80.0001 510.585 76.6668 514.119 74.4001C517.652 72.0668 521.619 70.9001 526.019 70.9001C529.685 70.9001 532.819 71.6668 535.419 73.2001C538.085 74.6668 540.119 76.7001 541.519 79.3001V54.0001H563.719V128H541.519V120.3C540.119 122.9 538.085 124.967 535.419 126.5C532.819 127.967 529.685 128.7 526.019 128.7C521.619 128.7 517.652 127.567 514.119 125.3C510.585 122.967 507.785 119.633 505.719 115.3C503.719 110.9 502.719 105.733 502.719 99.8001ZM541.619 99.8001C541.619 96.8001 540.852 94.4668 539.319 92.8001C537.785 91.1334 535.819 90.3001 533.419 90.3001C531.019 90.3001 529.052 91.1334 527.519 92.8001C525.985 94.4668 525.219 96.8001 525.219 99.8001C525.219 102.8 525.985 105.133 527.519 106.8C529.052 108.467 531.019 109.3 533.419 109.3C535.819 109.3 537.785 108.467 539.319 106.8C540.852 105.133 541.619 102.8 541.619 99.8001ZM612.88 74.9001V83.6001H634.88V100.3H612.88V110.3H637.88V128H590.68V57.2001H637.88V74.9001H612.88ZM683.246 128L673.746 115.3L666.646 128H642.246L661.146 98.3001L641.246 71.6001H666.046L675.546 84.4001L682.746 71.6001H707.146L687.646 100.6L708.046 128H683.246ZM748.143 109.1V128H739.743C724.276 128 716.543 120.3 716.543 104.9V90.1001H709.543V71.6001H716.543V58.0001H738.743V71.6001H747.943V90.1001H738.743V105.3C738.743 106.633 739.043 107.6 739.643 108.2C740.31 108.8 741.376 109.1 742.843 109.1H748.143ZM811.198 99.3001C811.198 100.833 811.098 102.3 810.898 103.7H775.198C775.531 108.567 777.564 111 781.298 111C783.698 111 785.431 109.9 786.498 107.7H809.998C809.198 111.7 807.498 115.3 804.898 118.5C802.364 121.633 799.131 124.133 795.198 126C791.331 127.8 787.064 128.7 782.398 128.7C776.798 128.7 771.798 127.533 767.398 125.2C763.064 122.867 759.664 119.533 757.198 115.2C754.798 110.8 753.598 105.667 753.598 99.8001C753.598 93.9334 754.798 88.8334 757.198 84.5001C759.664 80.1001 763.064 76.7334 767.398 74.4001C771.798 72.0668 776.798 70.9001 782.398 70.9001C787.998 70.9001 792.964 72.0668 797.298 74.4001C801.698 76.6668 805.098 79.9334 807.498 84.2001C809.964 88.4668 811.198 93.5001 811.198 99.3001ZM788.698 94.0001C788.698 92.1334 788.098 90.7334 786.898 89.8001C785.698 88.8001 784.198 88.3001 782.398 88.3001C778.464 88.3001 776.164 90.2001 775.498 94.0001H788.698ZM857.719 71.2001C864.185 71.2001 869.219 73.3668 872.819 77.7001C876.485 82.0334 878.319 87.9001 878.319 95.3001V128H856.219V98.1001C856.219 95.4334 855.485 93.3334 854.019 91.8001C852.619 90.2001 850.719 89.4001 848.319 89.4001C845.852 89.4001 843.919 90.2001 842.519 91.8001C841.119 93.3334 840.419 95.4334 840.419 98.1001V128H818.219V71.6001H840.419V80.2001C842.152 77.5334 844.452 75.3668 847.319 73.7001C850.252 72.0334 853.719 71.2001 857.719 71.2001ZM913.045 128.7C907.712 128.7 902.979 127.833 898.845 126.1C894.779 124.367 891.545 121.967 889.145 118.9C886.745 115.833 885.379 112.367 885.045 108.5H906.345C906.612 110.167 907.312 111.4 908.445 112.2C909.645 113 911.145 113.4 912.945 113.4C914.079 113.4 914.979 113.167 915.645 112.7C916.312 112.167 916.645 111.533 916.645 110.8C916.645 109.533 915.945 108.633 914.545 108.1C913.145 107.567 910.779 106.967 907.445 106.3C903.379 105.5 900.012 104.633 897.345 103.7C894.745 102.767 892.445 101.167 890.445 98.9001C888.512 96.6334 887.545 93.5001 887.545 89.5001C887.545 86.0334 888.445 82.9001 890.245 80.1001C892.112 77.2334 894.845 75.0001 898.445 73.4001C902.045 71.7334 906.412 70.9001 911.545 70.9001C919.145 70.9001 925.079 72.7668 929.345 76.5001C933.679 80.2334 936.279 85.1001 937.145 91.1001H917.445C917.112 89.5668 916.412 88.4001 915.345 87.6001C914.279 86.7334 912.845 86.3001 911.045 86.3001C909.912 86.3001 909.045 86.5334 908.445 87.0001C907.845 87.4001 907.545 88.0334 907.545 88.9001C907.545 90.0334 908.245 90.9001 909.645 91.5001C911.045 92.0334 913.279 92.6001 916.345 93.2001C920.412 94.0001 923.845 94.9001 926.645 95.9001C929.445 96.9001 931.879 98.6334 933.945 101.1C936.012 103.5 937.045 106.833 937.045 111.1C937.045 114.433 936.079 117.433 934.145 120.1C932.212 122.767 929.412 124.867 925.745 126.4C922.145 127.933 917.912 128.7 913.045 128.7ZM957.055 67.1001C953.189 67.1001 950.089 66.0668 947.755 64.0001C945.422 61.9334 944.255 59.3334 944.255 56.2001C944.255 53.0001 945.422 50.3668 947.755 48.3001C950.089 46.1668 953.189 45.1001 957.055 45.1001C960.855 45.1001 963.922 46.1668 966.255 48.3001C968.589 50.3668 969.755 53.0001 969.755 56.2001C969.755 59.3334 968.589 61.9334 966.255 64.0001C963.922 66.0668 960.855 67.1001 957.055 67.1001ZM968.055 128H945.855V71.6001H968.055V128ZM1004.88 128.7C999.215 128.7 994.115 127.533 989.582 125.2C985.049 122.867 981.482 119.533 978.882 115.2C976.349 110.8 975.082 105.667 975.082 99.8001C975.082 93.9334 976.349 88.8334 978.882 84.5001C981.482 80.1001 985.049 76.7334 989.582 74.4001C994.115 72.0668 999.215 70.9001 1004.88 70.9001C1010.55 70.9001 1015.65 72.0668 1020.18 74.4001C1024.72 76.7334 1028.25 80.1001 1030.78 84.5001C1033.38 88.8334 1034.68 93.9334 1034.68 99.8001C1034.68 105.667 1033.38 110.8 1030.78 115.2C1028.25 119.533 1024.72 122.867 1020.18 125.2C1015.65 127.533 1010.55 128.7 1004.88 128.7ZM1004.88 109.5C1006.95 109.5 1008.68 108.7 1010.08 107.1C1011.48 105.433 1012.18 103 1012.18 99.8001C1012.18 96.6001 1011.48 94.2001 1010.08 92.6001C1008.68 90.9334 1006.95 90.1001 1004.88 90.1001C1002.82 90.1001 1001.08 90.9334 999.682 92.6001C998.282 94.2001 997.582 96.6001 997.582 99.8001C997.582 103 998.249 105.433 999.582 107.1C1000.98 108.7 1002.75 109.5 1004.88 109.5ZM1081.16 71.2001C1087.62 71.2001 1092.66 73.3668 1096.26 77.7001C1099.92 82.0334 1101.76 87.9001 1101.76 95.3001V128H1079.66V98.1001C1079.66 95.4334 1078.92 93.3334 1077.46 91.8001C1076.06 90.2001 1074.16 89.4001 1071.76 89.4001C1069.29 89.4001 1067.36 90.2001 1065.96 91.8001C1064.56 93.3334 1063.86 95.4334 1063.86 98.1001V128H1041.66V71.6001H1063.86V80.2001C1065.59 77.5334 1067.89 75.3668 1070.76 73.7001C1073.69 72.0334 1077.16 71.2001 1081.16 71.2001ZM1136.48 128.7C1131.15 128.7 1126.42 127.833 1122.28 126.1C1118.22 124.367 1114.98 121.967 1112.58 118.9C1110.18 115.833 1108.82 112.367 1108.48 108.5H1129.78C1130.05 110.167 1130.75 111.4 1131.88 112.2C1133.08 113 1134.58 113.4 1136.38 113.4C1137.52 113.4 1138.42 113.167 1139.08 112.7C1139.75 112.167 1140.08 111.533 1140.08 110.8C1140.08 109.533 1139.38 108.633 1137.98 108.1C1136.58 107.567 1134.22 106.967 1130.88 106.3C1126.82 105.5 1123.45 104.633 1120.78 103.7C1118.18 102.767 1115.88 101.167 1113.88 98.9001C1111.95 96.6334 1110.98 93.5001 1110.98 89.5001C1110.98 86.0334 1111.88 82.9001 1113.68 80.1001C1115.55 77.2334 1118.28 75.0001 1121.88 73.4001C1125.48 71.7334 1129.85 70.9001 1134.98 70.9001C1142.58 70.9001 1148.52 72.7668 1152.78 76.5001C1157.12 80.2334 1159.72 85.1001 1160.58 91.1001H1140.88C1140.55 89.5668 1139.85 88.4001 1138.78 87.6001C1137.72 86.7334 1136.28 86.3001 1134.48 86.3001C1133.35 86.3001 1132.48 86.5334 1131.88 87.0001C1131.28 87.4001 1130.98 88.0334 1130.98 88.9001C1130.98 90.0334 1131.68 90.9001 1133.08 91.5001C1134.48 92.0334 1136.72 92.6001 1139.78 93.2001C1143.85 94.0001 1147.28 94.9001 1150.08 95.9001C1152.88 96.9001 1155.32 98.6334 1157.38 101.1C1159.45 103.5 1160.48 106.833 1160.48 111.1C1160.48 114.433 1159.52 117.433 1157.58 120.1C1155.65 122.767 1152.85 124.867 1149.18 126.4C1145.58 127.933 1141.35 128.7 1136.48 128.7ZM1293.96 111.964L1269.41 87.0001L1258 98.2188L1271.55 112H1183V128H1294V112H1293.92L1293.96 111.964Z" fill="black"/>
</svg>
