<svg width="864" height="160" viewBox="0 0 864 160" fill="none" xmlns="http://www.w3.org/2000/svg">
<path d="M77.508 25.456H78.508V24.456H77.508V25.456ZM77.508 46.224V47.224H78.508V46.224H77.508ZM55.324 46.224V45.224H54.324V46.224H55.324ZM55.324 109V110H56.324V109H55.324ZM29.128 109H28.128V110H29.128V109ZM29.128 46.224H30.128V45.224H29.128V46.224ZM7.18 46.224H6.18V47.224H7.18V46.224ZM7.18 25.456V24.456H6.18V25.456H7.18ZM76.508 25.456V46.224H78.508V25.456H76.508ZM77.508 45.224H55.324V47.224H77.508V45.224ZM54.324 46.224V109H56.324V46.224H54.324ZM55.324 108H29.128V110H55.324V108ZM30.128 109V46.224H28.128V109H30.128ZM29.128 45.224H7.18V47.224H29.128V45.224ZM8.18 46.224V25.456H6.18V46.224H8.18ZM7.18 26.456H77.508V24.456H7.18V26.456ZM84.6129 57.552L83.7077 57.1269L83.7049 57.1329L84.6129 57.552ZM94.5249 45.752L95.0649 46.5938L95.076 46.5865L94.5249 45.752ZM119.777 44.336L119.278 45.2029L119.287 45.2076L119.295 45.2122L119.777 44.336ZM126.975 51.534L126.094 52.0081L127.975 51.534H126.975ZM126.975 42.448V41.448H125.975V42.448H126.975ZM153.053 42.448H154.053V41.448H153.053V42.448ZM153.053 109V110H154.053V109H153.053ZM126.975 109H125.975V110H126.975V109ZM126.975 99.914H127.975L126.094 99.4399L126.975 99.914ZM119.777 107.23L120.259 108.106L120.267 108.102L120.275 108.097L119.777 107.23ZM94.5249 105.814L93.9738 106.649L93.9849 106.656L94.5249 105.814ZM84.6129 94.014L83.7025 94.4278L83.7063 94.4362L83.7103 94.4445L84.6129 94.014ZM124.261 67.464L124.997 66.7869L124.997 66.7869L124.261 67.464ZM110.337 67.464L109.601 66.7869L109.601 66.7869L110.337 67.464ZM110.337 83.984L109.601 84.6611L110.337 83.984ZM82.0729 75.724C82.0729 68.8331 83.2344 62.9251 85.5209 57.9711L83.7049 57.1329C81.2714 62.4056 80.0729 68.6122 80.0729 75.724H82.0729ZM85.518 57.9771C87.8895 52.9281 91.0778 49.1514 95.0648 46.5937L93.9849 44.9103C89.6333 47.7019 86.2136 51.7919 83.7078 57.1269L85.518 57.9771ZM95.076 46.5865C99.0751 43.9455 103.563 42.622 108.567 42.622V40.622C103.187 40.622 98.3133 42.0518 93.9738 44.9175L95.076 46.5865ZM108.567 42.622C112.752 42.622 116.31 43.4961 119.278 45.2029L120.275 43.4691C116.95 41.5572 113.035 40.622 108.567 40.622V42.622ZM119.295 45.2122C122.278 46.853 124.537 49.1151 126.094 52.0081L127.855 51.0599C126.109 47.8169 123.569 45.2803 120.259 43.4598L119.295 45.2122ZM127.975 51.534V42.448H125.975V51.534H127.975ZM126.975 43.448H153.053V41.448H126.975V43.448ZM152.053 42.448V109H154.053V42.448H152.053ZM153.053 108H126.975V110H153.053V108ZM127.975 109V99.914H125.975V109H127.975ZM126.094 99.4399C124.534 102.337 122.271 104.643 119.278 106.363L120.275 108.097C123.576 106.199 126.111 103.627 127.855 100.388L126.094 99.4399ZM119.295 106.354C116.323 107.988 112.759 108.826 108.567 108.826V110.826C113.028 110.826 116.937 109.933 120.259 108.106L119.295 106.354ZM108.567 108.826C103.557 108.826 99.0651 107.539 95.0648 104.972L93.9849 106.656C98.3234 109.439 103.193 110.826 108.567 110.826V108.826ZM95.076 104.98C91.0778 102.339 87.8866 98.5552 85.5155 93.5835L83.7103 94.4445C86.2165 99.6995 89.6333 103.782 93.9738 106.648L95.076 104.98ZM85.5233 93.6002C83.2342 88.5642 82.0729 82.6143 82.0729 75.724H80.0729C80.0729 82.8364 81.2716 89.0798 83.7025 94.4278L85.5233 93.6002ZM127.975 75.724C127.975 72.0165 127.025 68.9915 124.997 66.7869L123.525 68.1411C125.115 69.8698 125.975 72.3515 125.975 75.724H127.975ZM124.997 66.7869C122.986 64.601 120.392 63.514 117.299 63.514V65.514C119.87 65.514 121.917 66.3937 123.525 68.1411L124.997 66.7869ZM117.299 63.514C114.206 63.514 111.612 64.601 109.601 66.7869L111.073 68.1411C112.68 66.3937 114.728 65.514 117.299 65.514V63.514ZM109.601 66.7869C107.573 68.9915 106.623 72.0165 106.623 75.724H108.623C108.623 72.3515 109.482 69.8698 111.073 68.1411L109.601 66.7869ZM106.623 75.724C106.623 79.4315 107.573 82.4565 109.601 84.6611L111.073 83.3069C109.482 81.5781 108.623 79.0965 108.623 75.724H106.623ZM109.601 84.6611C111.612 86.847 114.206 87.934 117.299 87.934V85.934C114.728 85.934 112.68 85.0543 111.073 83.3069L109.601 84.6611ZM117.299 87.934C120.392 87.934 122.986 86.847 124.997 84.6611L123.525 83.3069C121.917 85.0543 119.87 85.934 117.299 85.934V87.934ZM124.997 84.6611C127.025 82.4565 127.975 79.4315 127.975 75.724H125.975C125.975 79.0965 125.115 81.5781 123.525 83.3069L124.997 84.6611ZM191.012 21.68H192.012V20.68H191.012V21.68ZM191.012 109V110H192.012V109H191.012ZM164.816 109H163.816V110H164.816V109ZM164.816 21.68V20.68H163.816V21.68H164.816ZM190.012 21.68V109H192.012V21.68H190.012ZM191.012 108H164.816V110H191.012V108ZM165.816 109V21.68H163.816V109H165.816ZM164.816 22.68H191.012V20.68H164.816V22.68ZM245.441 109L244.591 109.526L244.884 110H245.441V109ZM229.039 82.45L229.89 81.9244L228.039 78.9286V82.45H229.039ZM229.039 109V110H230.039V109H229.039ZM202.843 109H201.843V110H202.843V109ZM202.843 21.68V20.68H201.843V21.68H202.843ZM229.039 21.68H230.039V20.68H229.039V21.68ZM229.039 67.346H228.039V70.6423L229.871 67.9016L229.039 67.346ZM245.677 42.448V41.448H245.143L244.846 41.8924L245.677 42.448ZM276.121 42.448L276.924 43.0444L278.11 41.448H276.121V42.448ZM251.223 75.96L250.421 75.3636L249.969 75.9713L250.432 76.5708L251.223 75.96ZM276.711 109V110H278.746L277.503 108.389L276.711 109ZM246.292 108.474L229.89 81.9244L228.189 82.9756L244.591 109.526L246.292 108.474ZM228.039 82.45V109H230.039V82.45H228.039ZM229.039 108H202.843V110H229.039V108ZM203.843 109V21.68H201.843V109H203.843ZM202.843 22.68H229.039V20.68H202.843V22.68ZM228.039 21.68V67.346H230.039V21.68H228.039ZM229.871 67.9016L246.509 43.0036L244.846 41.8924L228.208 66.7904L229.871 67.9016ZM245.677 43.448H276.121V41.448H245.677V43.448ZM275.319 41.8516L250.421 75.3636L252.026 76.5564L276.924 43.0444L275.319 41.8516ZM250.432 76.5708L275.92 109.611L277.503 108.389L252.015 75.3492L250.432 76.5708ZM276.711 108H245.441V110H276.711V108ZM295.448 106.758L295.055 107.678L295.061 107.68L295.448 106.758ZM279.164 85.99V84.99H278.074L278.167 86.0759L279.164 85.99ZM304.298 85.99L305.285 85.832L305.15 84.99H304.298V85.99ZM306.776 90.356L306.199 91.173L306.21 91.1807L306.221 91.188L306.776 90.356ZM315.272 90.946L315.845 91.7652L315.871 91.7469L315.896 91.7269L315.272 90.946ZM305.596 83.394L305.792 82.4134L305.789 82.4128L305.596 83.394ZM293.678 80.326L293.34 81.2672L293.347 81.2699L293.678 80.326ZM285.536 74.662L284.775 75.3109L284.78 75.3173L284.786 75.3236L285.536 74.662ZM285.3 52.478L284.462 51.9323L284.458 51.9372L285.3 52.478ZM294.976 44.572L295.382 45.4858L295.389 45.4827L295.396 45.4795L294.976 44.572ZM331.438 48.23L330.779 48.9826L330.785 48.9876L331.438 48.23ZM340.642 65.458V66.458H341.796L341.631 65.315L340.642 65.458ZM317.396 65.458L316.418 65.6704L316.59 66.458H317.396V65.458ZM314.918 61.328L314.287 62.1041L314.302 62.1164L314.318 62.128L314.918 61.328ZM306.776 60.62L307.33 61.452L307.361 61.4318L307.389 61.4093L306.776 60.62ZM308.192 65.93L307.798 66.8491L307.816 66.8572L307.836 66.8645L308.192 65.93ZM316.098 67.936L316.291 66.9548L316.29 66.9546L316.098 67.936ZM328.252 71.122L327.915 72.0637L327.915 72.0637L328.252 71.122ZM336.866 77.258L336.099 77.9003L336.108 77.9105L336.866 77.258ZM337.102 99.678L337.911 100.265L337.911 100.265L337.102 99.678ZM327.19 107.112L326.804 106.189L326.798 106.192L327.19 107.112ZM312.204 108.826C306.018 108.826 300.568 107.821 295.834 105.836L295.061 107.68C300.082 109.786 305.802 110.826 312.204 110.826V108.826ZM295.84 105.838C291.175 103.85 287.504 101.114 284.789 97.6457L283.214 98.8783C286.163 102.647 290.123 105.575 295.055 107.678L295.84 105.838ZM284.789 97.6457C282.076 94.1793 280.536 90.2728 280.16 85.9041L278.167 86.0759C278.577 90.8326 280.263 95.1074 283.214 98.8783L284.789 97.6457ZM279.164 86.99H304.298V84.99H279.164V86.99ZM303.31 86.148C303.657 88.319 304.595 90.0409 306.199 91.173L307.352 89.539C306.281 88.7831 305.567 87.5943 305.285 85.832L303.31 86.148ZM306.221 91.188C307.838 92.2659 309.813 92.772 312.086 92.772V90.772C310.11 90.772 308.545 90.3341 307.33 89.5239L306.221 91.188ZM312.086 92.772C313.55 92.772 314.836 92.4716 315.845 91.7652L314.698 90.1268C314.134 90.5218 313.296 90.772 312.086 90.772V92.772ZM315.896 91.7269C316.876 90.9427 317.452 89.925 317.452 88.704H315.452C315.452 89.2137 315.24 89.6906 314.647 90.1651L315.896 91.7269ZM317.452 88.704C317.452 87.7604 317.186 86.8986 316.621 86.1726C316.066 85.4584 315.274 84.9434 314.33 84.5835L313.618 86.4525C314.325 86.722 314.772 87.0526 315.043 87.4004C315.304 87.7364 315.452 88.153 315.452 88.704H317.452ZM314.33 84.5835C312.593 83.922 309.729 83.2008 305.792 82.4134L305.399 84.3746C309.329 85.1605 312.05 85.8554 313.618 86.4525L314.33 84.5835ZM305.789 82.4128C301.017 81.4742 297.094 80.4624 294.008 79.3821L293.347 81.2699C296.554 82.3923 300.577 83.4258 305.403 84.3752L305.789 82.4128ZM294.015 79.3848C291.121 78.3457 288.545 76.5608 286.285 74.0004L284.786 75.3236C287.246 78.1125 290.098 80.1036 293.34 81.2672L294.015 79.3848ZM286.296 74.0131C284.215 71.5733 283.114 68.1342 283.114 63.57H281.114C281.114 68.4458 282.293 72.4014 284.775 75.3109L286.296 74.0131ZM283.114 63.57C283.114 59.6627 284.125 56.1546 286.141 53.0188L284.458 51.9372C282.226 55.4094 281.114 59.296 281.114 63.57H283.114ZM286.138 53.0237C288.22 49.8263 291.283 47.3076 295.382 45.4858L294.569 43.6582C290.172 45.6124 286.785 48.3644 284.462 51.9323L286.138 53.0237ZM295.396 45.4795C299.479 43.5889 304.48 42.622 310.434 42.622V40.622C304.272 40.622 298.968 41.6218 294.555 43.6645L295.396 45.4795ZM310.434 42.622C319.243 42.622 325.981 44.7842 330.779 48.9826L332.096 47.4774C326.825 42.8651 319.56 40.622 310.434 40.622V42.622ZM330.785 48.9876C335.704 53.2255 338.661 58.7442 339.652 65.601L341.631 65.315C340.576 58.0118 337.398 52.0452 332.09 47.4724L330.785 48.9876ZM340.642 64.458H317.396V66.458H340.642V64.458ZM318.373 65.2456C317.938 63.2452 317.001 61.641 315.518 60.528L314.318 62.128C315.351 62.903 316.067 64.0521 316.418 65.6704L318.373 65.2456ZM315.548 60.5519C314.063 59.3448 312.125 58.794 309.844 58.794V60.794C311.81 60.794 313.255 61.2659 314.287 62.1041L315.548 60.5519ZM309.844 58.794C308.388 58.794 307.113 59.0908 306.162 59.8306L307.389 61.4093C307.854 61.0479 308.624 60.794 309.844 60.794V58.794ZM306.221 59.7879C305.176 60.4846 304.714 61.5825 304.714 62.862H306.714C306.714 62.0962 306.959 61.6994 307.33 61.452L306.221 59.7879ZM304.714 62.862C304.714 63.755 304.996 64.5678 305.555 65.2603C306.101 65.9364 306.874 66.4534 307.798 66.8491L308.585 65.0109C307.857 64.6986 307.391 64.3503 307.111 64.0037C306.844 63.6735 306.714 63.3063 306.714 62.862H304.714ZM307.836 66.8645C309.572 67.5259 312.277 68.2075 315.906 68.9174L316.29 66.9546C312.68 66.2484 310.115 65.5927 308.548 64.9955L307.836 66.8645ZM315.905 68.9172C320.672 69.855 324.672 70.9055 327.915 72.0637L328.588 70.1803C325.223 68.9785 321.121 67.905 316.291 66.9548L315.905 68.9172ZM327.915 72.0637C331.038 73.179 333.765 75.1143 336.099 77.9002L337.632 76.6158C335.089 73.5804 332.073 71.425 328.588 70.1803L327.915 72.0637ZM336.108 77.9105C338.343 80.5063 339.524 84.1791 339.524 89.058H341.524C341.524 83.8676 340.265 79.6737 337.623 76.6055L336.108 77.9105ZM339.524 89.058C339.524 92.7832 338.448 96.1173 336.292 99.091L337.911 100.265C340.318 96.9454 341.524 93.1994 341.524 89.058H339.524ZM336.292 99.091C334.139 102.061 330.996 104.436 326.804 106.189L327.575 108.035C332.036 106.169 335.502 103.588 337.911 100.265L336.292 99.091ZM326.798 106.192C322.7 107.937 317.843 108.826 312.204 108.826V110.826C318.049 110.826 323.183 109.905 327.581 108.032L326.798 106.192ZM378.876 102.864L378.286 103.671L378.297 103.679L378.876 102.864ZM368.374 82.214V81.214H367.312L367.376 82.2748L368.374 82.214ZM396.222 82.214L397.219 82.1323L397.144 81.214H396.222V82.214ZM406.134 88.468L406.689 89.3L406.696 89.2952L406.704 89.2902L406.134 88.468ZM404.482 80.562L403.973 81.4223L403.984 81.4294L403.997 81.4362L404.482 80.562ZM394.57 76.314L394.237 77.257L394.239 77.2576L394.57 76.314ZM381.236 70.768L380.773 71.6543L380.781 71.6584L381.236 70.768ZM372.268 62.862L373.077 62.2738L373.077 62.2738L372.268 62.862ZM368.61 49.528L369.61 49.5425L369.61 49.5352V49.528H368.61ZM372.74 35.722L371.934 35.1299L371.932 35.1328L372.74 35.722ZM384.186 26.99L383.812 26.0625L383.807 26.0647L384.186 26.99ZM424.896 31.12L424.277 31.9049L424.282 31.9088L424.896 31.12ZM434.454 51.062V52.062H435.492L435.454 51.0253L434.454 51.062ZM406.252 51.062L405.253 51.0953L405.285 52.062H406.252V51.062ZM404.482 45.988L405.163 45.2552L404.482 45.988ZM397.756 45.634L398.463 46.3411L398.482 46.3225L398.5 46.303L397.756 45.634ZM399.762 53.422L399.238 54.2737L399.257 54.2853L399.277 54.2962L399.762 53.422ZM409.792 57.788L409.438 58.723L409.443 58.7249L409.792 57.788ZM422.772 63.452L422.301 64.3338L422.309 64.3382L422.772 63.452ZM431.74 71.004L430.952 71.6193L430.952 71.6193L431.74 71.004ZM431.74 96.964L432.587 97.4955L432.592 97.4881L431.74 96.964ZM420.766 106.404L420.337 105.501L420.766 106.404ZM403.656 108.826C393.821 108.826 385.778 106.543 379.456 102.049L378.297 103.679C385.033 108.468 393.51 110.826 403.656 110.826V108.826ZM379.467 102.057C373.29 97.5375 369.908 90.9476 369.372 82.1532L367.376 82.2748C367.942 91.5738 371.561 98.7505 378.286 103.671L379.467 102.057ZM368.374 83.214H396.222V81.214H368.374V83.214ZM395.226 82.2957C395.432 84.8076 396.1 86.8507 397.362 88.2753C398.652 89.7327 400.444 90.412 402.594 90.412V88.412C400.89 88.412 399.693 87.8916 398.859 86.9497C397.996 85.975 397.406 84.419 397.219 82.1323L395.226 82.2957ZM402.594 90.412C404.159 90.412 405.544 90.0633 406.689 89.3L405.58 87.6359C404.836 88.1314 403.862 88.412 402.594 88.412V90.412ZM406.704 89.2902C408.037 88.3673 408.668 86.9735 408.668 85.282H406.668C406.668 86.4225 406.277 87.1527 405.565 87.6458L406.704 89.2902ZM408.668 85.282C408.668 82.8615 407.321 80.9953 404.968 79.6878L403.997 81.4362C405.891 82.4887 406.668 83.7692 406.668 85.282H408.668ZM404.992 79.7017C402.781 78.3914 399.402 76.9495 394.901 75.3704L394.239 77.2576C398.707 78.8252 401.936 80.2152 403.973 81.4223L404.992 79.7017ZM394.903 75.371C389.58 73.4921 385.179 71.6602 381.691 69.8776L380.781 71.6584C384.373 73.4945 388.862 75.3599 394.237 77.257L394.903 75.371ZM381.7 69.8818C378.388 68.1505 375.513 65.6226 373.077 62.2738L371.46 63.4502C374.059 67.024 377.162 69.7669 380.773 71.6542L381.7 69.8818ZM373.077 62.2738C370.718 59.0295 369.534 54.8128 369.61 49.5425L367.61 49.5135C367.529 55.0991 368.784 59.7718 371.46 63.4502L373.077 62.2738ZM369.61 49.528C369.61 44.2764 370.939 39.8895 373.548 36.3112L371.932 35.1328C369.035 39.1065 367.61 43.9236 367.61 49.528H369.61ZM373.546 36.3141C376.26 32.62 379.922 29.8183 384.566 27.9153L383.807 26.0647C378.853 28.095 374.884 31.1146 371.934 35.1299L373.546 36.3141ZM384.56 27.9174C389.302 26.0054 394.64 25.04 400.588 25.04V23.04C394.422 23.04 388.825 24.0413 383.812 26.0626L384.56 27.9174ZM400.588 25.04C410.667 25.04 418.527 27.3653 424.277 31.9049L425.516 30.3351C419.309 25.4347 410.963 23.04 400.588 23.04V25.04ZM424.282 31.9088C430.077 36.4245 433.15 42.7802 433.455 51.0987L435.454 51.0253C435.13 42.1944 431.83 35.2555 425.511 30.3312L424.282 31.9088ZM434.454 50.062H406.252V52.062H434.454V50.062ZM407.252 51.0287C407.169 48.55 406.546 46.5397 405.163 45.2552L403.802 46.7208C404.621 47.4816 405.178 48.854 405.253 51.0953L407.252 51.0287ZM405.163 45.2552C403.867 44.0521 402.283 43.454 400.47 43.454V45.454C401.804 45.454 402.895 45.8785 403.802 46.7208L405.163 45.2552ZM400.47 43.454C399.099 43.454 397.919 43.9581 397.013 44.965L398.5 46.303C399.009 45.7365 399.639 45.454 400.47 45.454V43.454ZM397.049 44.9269C396.097 45.8787 395.694 47.1914 395.694 48.702H397.694C397.694 47.538 397.999 46.8053 398.463 46.3411L397.049 44.9269ZM395.694 48.702C395.694 51.0331 396.989 52.8896 399.238 54.2737L400.286 52.5703C398.445 51.437 397.694 50.1469 397.694 48.702H395.694ZM399.277 54.2962C401.466 55.5127 404.865 56.9887 409.438 58.723L410.147 56.853C405.594 55.126 402.306 53.6913 400.248 52.5478L399.277 54.2962ZM409.443 58.7249C414.689 60.6824 418.971 62.5528 422.301 64.3338L423.244 62.5702C419.808 60.7326 415.437 58.8269 410.142 56.8511L409.443 58.7249ZM422.309 64.3382C425.638 66.0783 428.518 68.5009 430.952 71.6193L432.529 70.3887C429.928 67.0564 426.829 64.4443 423.236 62.5658L422.309 64.3382ZM430.952 71.6193C433.307 74.6368 434.516 78.4593 434.516 83.158H436.516C436.516 78.1021 435.208 73.8218 432.529 70.3887L430.952 71.6193ZM434.516 83.158C434.516 88.0987 433.303 92.5171 430.889 96.4399L432.592 97.4881C435.213 93.2295 436.516 88.4439 436.516 83.158H434.516ZM430.893 96.4325C428.489 100.264 424.985 103.291 420.337 105.501L421.196 107.307C426.145 104.954 429.957 101.688 432.587 97.4955L430.893 96.4325ZM420.337 105.501C415.701 107.705 410.151 108.826 403.656 108.826V110.826C410.378 110.826 416.234 109.666 421.196 107.307L420.337 105.501ZM509.148 49.646L508.379 50.285L508.385 50.2919L509.148 49.646ZM515.638 109V110H516.638V109H515.638ZM489.56 109H488.56V110H489.56V109ZM486.964 66.284L486.212 66.9425L486.226 66.9592L486.242 66.9752L486.964 66.284ZM473.394 66.284L474.133 66.9583L474.14 66.9505L474.147 66.9425L473.394 66.284ZM470.916 109V110H471.916V109H470.916ZM444.72 109H443.72V110H444.72V109ZM444.72 21.68V20.68H443.72V21.68H444.72ZM470.916 21.68H471.916V20.68H470.916V21.68ZM470.916 52.596H469.916V55.9694L471.755 53.141L470.916 52.596ZM479.058 44.926L478.564 44.0565L478.556 44.0615L479.058 44.926ZM491.33 42.976C498.713 42.976 504.35 45.4357 508.379 50.285L509.918 49.007C505.45 43.6296 499.209 40.976 491.33 40.976V42.976ZM508.385 50.2919C512.517 55.1759 514.638 61.8455 514.638 70.414H516.638C516.638 61.5185 514.432 54.3428 509.912 49.0001L508.385 50.2919ZM514.638 70.414V109H516.638V70.414H514.638ZM515.638 108H489.56V110H515.638V108ZM490.56 109V73.718H488.56V109H490.56ZM490.56 73.718C490.56 70.3831 489.638 67.6329 487.687 65.5928L486.242 66.9752C487.752 68.5538 488.56 70.7596 488.56 73.718H490.56ZM487.717 65.6255C485.849 63.4911 483.317 62.452 480.238 62.452V64.452C482.823 64.452 484.775 65.3009 486.212 66.9425L487.717 65.6255ZM480.238 62.452C477.09 62.452 474.515 63.4848 472.642 65.6255L474.147 66.9425C475.578 65.3072 477.565 64.452 480.238 64.452V62.452ZM472.656 65.6097C470.792 67.6511 469.916 70.3951 469.916 73.718H471.916C471.916 70.7476 472.693 68.5356 474.133 66.9583L472.656 65.6097ZM469.916 73.718V109H471.916V73.718H469.916ZM470.916 108H444.72V110H470.916V108ZM445.72 109V21.68H443.72V109H445.72ZM444.72 22.68H470.916V20.68H444.72V22.68ZM469.916 21.68V52.596H471.916V21.68H469.916ZM471.755 53.141C473.711 50.1313 476.308 47.6819 479.561 45.7905L478.556 44.0615C475.044 46.1034 472.212 48.7674 470.078 52.051L471.755 53.141ZM479.552 45.7955C482.837 43.929 486.751 42.976 491.33 42.976V40.976C486.469 40.976 482.202 41.9897 478.564 44.0565L479.552 45.7955ZM526.998 57.552L526.093 57.1269L526.09 57.1329L526.998 57.552ZM536.91 45.752L537.45 46.5938L537.461 46.5865L536.91 45.752ZM562.162 44.336L561.663 45.2029L561.671 45.2076L561.68 45.2122L562.162 44.336ZM569.36 51.534L568.479 52.0081L570.36 51.534H569.36ZM569.36 42.448V41.448H568.36V42.448H569.36ZM595.438 42.448H596.438V41.448H595.438V42.448ZM595.438 109V110H596.438V109H595.438ZM569.36 109H568.36V110H569.36V109ZM569.36 99.914H570.36L568.479 99.4399L569.36 99.914ZM562.162 107.23L562.644 108.106L562.652 108.102L562.66 108.097L562.162 107.23ZM536.91 105.814L536.359 106.649L536.37 106.656L536.91 105.814ZM526.998 94.014L526.087 94.4278L526.091 94.4362L526.095 94.4445L526.998 94.014ZM566.646 67.464L567.382 66.7869L567.382 66.7869L566.646 67.464ZM552.722 67.464L551.986 66.7869L551.986 66.7869L552.722 67.464ZM552.722 83.984L551.986 84.6611L552.722 83.984ZM524.458 75.724C524.458 68.8331 525.619 62.9251 527.906 57.9711L526.09 57.1329C523.656 62.4056 522.458 68.6122 522.458 75.724H524.458ZM527.903 57.9771C530.274 52.9281 533.463 49.1514 537.45 46.5937L536.37 44.9103C532.018 47.7019 528.598 51.7919 526.093 57.1269L527.903 57.9771ZM537.461 46.5865C541.46 43.9455 545.947 42.622 550.952 42.622V40.622C545.572 40.622 540.698 42.0518 536.359 44.9175L537.461 46.5865ZM550.952 42.622C555.137 42.622 558.695 43.4961 561.663 45.2029L562.66 43.4691C559.335 41.5572 555.42 40.622 550.952 40.622V42.622ZM561.68 45.2122C564.663 46.853 566.921 49.1151 568.479 52.0081L570.24 51.0599C568.494 47.8169 565.954 45.2803 562.644 43.4598L561.68 45.2122ZM570.36 51.534V42.448H568.36V51.534H570.36ZM569.36 43.448H595.438V41.448H569.36V43.448ZM594.438 42.448V109H596.438V42.448H594.438ZM595.438 108H569.36V110H595.438V108ZM570.36 109V99.914H568.36V109H570.36ZM568.479 99.4399C566.919 102.337 564.655 104.643 561.663 106.363L562.66 108.097C565.961 106.199 568.496 103.627 570.24 100.388L568.479 99.4399ZM561.68 106.354C558.708 107.988 555.144 108.826 550.952 108.826V110.826C555.412 110.826 559.322 109.933 562.644 108.106L561.68 106.354ZM550.952 108.826C545.941 108.826 541.45 107.539 537.45 104.972L536.37 106.656C540.708 109.439 545.578 110.826 550.952 110.826V108.826ZM537.461 104.98C533.463 102.339 530.271 98.5552 527.9 93.5835L526.095 94.4445C528.601 99.6995 532.018 103.782 536.359 106.648L537.461 104.98ZM527.908 93.6002C525.619 88.5642 524.458 82.6143 524.458 75.724H522.458C522.458 82.8364 523.656 89.0798 526.087 94.4278L527.908 93.6002ZM570.36 75.724C570.36 72.0165 569.41 68.9915 567.382 66.7869L565.91 68.1411C567.5 69.8698 568.36 72.3515 568.36 75.724H570.36ZM567.382 66.7869C565.371 64.601 562.777 63.514 559.684 63.514V65.514C562.255 65.514 564.302 66.3937 565.91 68.1411L567.382 66.7869ZM559.684 63.514C556.591 63.514 553.997 64.601 551.986 66.7869L553.458 68.1411C555.065 66.3937 557.113 65.514 559.684 65.514V63.514ZM551.986 66.7869C549.958 68.9915 549.008 72.0165 549.008 75.724H551.008C551.008 72.3515 551.867 69.8698 553.458 68.1411L551.986 66.7869ZM549.008 75.724C549.008 79.4315 549.958 82.4565 551.986 84.6611L553.458 83.3069C551.867 81.5781 551.008 79.0965 551.008 75.724H549.008ZM551.986 84.6611C553.997 86.847 556.591 87.934 559.684 87.934V85.934C557.113 85.934 555.065 85.0543 553.458 83.3069L551.986 84.6611ZM559.684 87.934C562.777 87.934 565.371 86.847 567.382 84.6611L565.91 83.3069C564.302 85.0543 562.255 85.934 559.684 85.934V87.934ZM567.382 84.6611C569.41 82.4565 570.36 79.4315 570.36 75.724H568.36C568.36 79.0965 567.5 81.5781 565.91 83.3069L567.382 84.6611ZM633.397 54.72H632.397V57.9153L634.218 55.2901L633.397 54.72ZM643.191 45.516L643.7 46.3766L643.707 46.3728L643.713 46.3688L643.191 45.516ZM655.227 41.976H656.227V40.976H655.227V41.976ZM655.227 69.942V70.942H656.227V69.942H655.227ZM636.819 72.538L636.227 71.7316L636.221 71.7364L636.214 71.7413L636.819 72.538ZM633.397 109V110H634.397V109H633.397ZM607.201 109H606.201V110H607.201V109ZM607.201 42.448V41.448H606.201V42.448H607.201ZM633.397 42.448H634.397V41.448H633.397V42.448ZM634.218 55.2901C636.815 51.5478 639.975 48.5812 643.7 46.3766L642.681 44.6554C638.697 47.0135 635.328 50.1828 632.575 54.1499L634.218 55.2901ZM643.713 46.3688C647.424 44.0967 651.257 42.976 655.227 42.976V40.976C650.858 40.976 646.667 42.2153 642.669 44.6631L643.713 46.3688ZM654.227 41.976V69.942H656.227V41.976H654.227ZM655.227 68.942H647.793V70.942H655.227V68.942ZM647.793 68.942C642.757 68.942 638.842 69.8144 636.227 71.7316L637.41 73.3444C639.516 71.8002 642.917 70.942 647.793 70.942V68.942ZM636.214 71.7413C633.573 73.7453 632.397 77.1963 632.397 81.742H634.397C634.397 77.4771 635.502 74.792 637.423 73.3347L636.214 71.7413ZM632.397 81.742V109H634.397V81.742H632.397ZM633.397 108H607.201V110H633.397V108ZM608.201 109V42.448H606.201V109H608.201ZM607.201 43.448H633.397V41.448H607.201V43.448ZM632.397 42.448V54.72H634.397V42.448H632.397ZM664.525 33.48L665.188 32.7314L665.188 32.7314L664.525 33.48ZM664.525 14.954L665.188 15.7026L665.194 15.6973L665.2 15.692L664.525 14.954ZM686.355 14.954L685.68 15.692L685.686 15.6973L685.692 15.7026L686.355 14.954ZM686.355 33.48L685.692 32.7314L685.692 32.7314L686.355 33.48ZM688.479 42.448H689.479V41.448H688.479V42.448ZM688.479 109V110H689.479V109H688.479ZM662.283 109H661.283V110H662.283V109ZM662.283 42.448V41.448H661.283V42.448H662.283ZM675.499 36.138C671.119 36.138 667.717 34.9717 665.188 32.7314L663.862 34.2286C666.839 36.8656 670.753 38.138 675.499 38.138V36.138ZM665.188 32.7314C662.65 30.4837 661.395 27.6888 661.395 24.276H659.395C659.395 28.2579 660.893 31.599 663.862 34.2286L665.188 32.7314ZM661.395 24.276C661.395 20.7775 662.655 17.9458 665.188 15.7026L663.862 14.2054C660.888 16.8396 659.395 20.2224 659.395 24.276H661.395ZM665.2 15.692C667.73 13.3789 671.127 12.178 675.499 12.178V10.178C670.745 10.178 666.827 11.4944 663.85 14.216L665.2 15.692ZM675.499 12.178C679.786 12.178 683.147 13.376 685.68 15.692L687.03 14.216C684.056 11.4973 680.179 10.178 675.499 10.178V12.178ZM685.692 15.7026C688.224 17.9458 689.485 20.7775 689.485 24.276H691.485C691.485 20.2224 689.992 16.8396 687.018 14.2054L685.692 15.7026ZM689.485 24.276C689.485 27.6888 688.23 30.4837 685.692 32.7314L687.018 34.2286C689.987 31.599 691.485 28.2579 691.485 24.276H689.485ZM685.692 32.7314C683.159 34.9745 679.794 36.138 675.499 36.138V38.138C680.171 38.138 684.044 36.8629 687.018 34.2286L685.692 32.7314ZM687.479 42.448V109H689.479V42.448H687.479ZM688.479 108H662.283V110H688.479V108ZM663.283 109V42.448H661.283V109H663.283ZM662.283 43.448H688.479V41.448H662.283V43.448ZM764.738 49.646L763.969 50.285L763.975 50.2919L764.738 49.646ZM771.228 109V110H772.228V109H771.228ZM745.15 109H744.15V110H745.15V109ZM742.554 66.284L741.802 66.9425L741.816 66.9592L741.832 66.9752L742.554 66.284ZM728.984 66.284L729.723 66.9583L729.73 66.9505L729.737 66.9425L728.984 66.284ZM726.506 109V110H727.506V109H726.506ZM700.31 109H699.31V110H700.31V109ZM700.31 42.448V41.448H699.31V42.448H700.31ZM726.506 42.448H727.506V41.448H726.506V42.448ZM726.506 52.596H725.506V55.9694L727.345 53.141L726.506 52.596ZM734.648 44.926L734.154 44.0565L734.146 44.0615L734.648 44.926ZM746.92 42.976C754.303 42.976 759.94 45.4357 763.969 50.285L765.507 49.007C761.04 43.6296 754.799 40.976 746.92 40.976V42.976ZM763.975 50.2919C768.107 55.1759 770.228 61.8455 770.228 70.414H772.228C772.228 61.5185 770.022 54.3428 765.502 49.0001L763.975 50.2919ZM770.228 70.414V109H772.228V70.414H770.228ZM771.228 108H745.15V110H771.228V108ZM746.15 109V73.718H744.15V109H746.15ZM746.15 73.718C746.15 70.3831 745.228 67.6329 743.277 65.5928L741.832 66.9752C743.341 68.5538 744.15 70.7596 744.15 73.718H746.15ZM743.307 65.6255C741.439 63.4911 738.907 62.452 735.828 62.452V64.452C738.413 64.452 740.365 65.3009 741.802 66.9425L743.307 65.6255ZM735.828 62.452C732.68 62.452 730.105 63.4848 728.232 65.6255L729.737 66.9425C731.168 65.3072 733.155 64.452 735.828 64.452V62.452ZM728.246 65.6097C726.382 67.6511 725.506 70.3951 725.506 73.718H727.506C727.506 70.7476 728.282 68.5356 729.723 66.9583L728.246 65.6097ZM725.506 73.718V109H727.506V73.718H725.506ZM726.506 108H700.31V110H726.506V108ZM701.31 109V42.448H699.31V109H701.31ZM700.31 43.448H726.506V41.448H700.31V43.448ZM725.506 42.448V52.596H727.506V42.448H725.506ZM727.345 53.141C729.301 50.1313 731.898 47.6819 735.151 45.7905L734.146 44.0615C730.633 46.1034 727.802 48.7674 725.668 52.051L727.345 53.141ZM735.142 45.7955C738.427 43.929 742.341 42.976 746.92 42.976V40.976C742.059 40.976 737.792 41.9897 734.154 44.0565L735.142 45.7955ZM817.752 44.336L817.253 45.2029L817.261 45.2076L817.27 45.2122L817.752 44.336ZM824.95 51.534L824.069 52.0081L825.95 51.534H824.95ZM824.95 42.448V41.448H823.95V42.448H824.95ZM851.028 42.448H852.028V41.448H851.028V42.448ZM847.606 124.812L846.692 124.405L846.692 124.405L847.606 124.812ZM836.514 137.084L835.999 136.226L835.993 136.23L836.514 137.084ZM791.556 134.134L792.18 133.353L792.179 133.352L791.556 134.134ZM780.936 113.838V112.838H779.83L779.941 113.938L780.936 113.838ZM806.66 113.838L807.639 113.638L807.476 112.838H806.66V113.838ZM822.354 116.67L823.026 117.41L823.026 117.41L822.354 116.67ZM824.95 99.914H825.95L824.069 99.4399L824.95 99.914ZM817.752 107.23L818.233 108.106L818.242 108.102L818.25 108.097L817.752 107.23ZM792.5 105.814L791.948 106.649L791.96 106.656L792.5 105.814ZM782.588 94.014L781.677 94.4278L781.681 94.4362L781.685 94.4445L782.588 94.014ZM782.588 57.552L781.682 57.1269L781.68 57.1329L782.588 57.552ZM792.5 45.752L793.04 46.5938L793.051 46.5865L792.5 45.752ZM822.236 67.464L822.971 66.7869L822.971 66.7869L822.236 67.464ZM808.312 67.464L807.576 66.7869L807.576 66.7869L808.312 67.464ZM808.312 83.984L807.576 84.6611L808.312 83.984ZM806.542 42.622C810.727 42.622 814.285 43.4961 817.253 45.2029L818.25 43.4691C814.925 41.5572 811.009 40.622 806.542 40.622V42.622ZM817.27 45.2122C820.253 46.853 822.511 49.1151 824.069 52.0081L825.83 51.0599C824.084 47.8169 821.543 45.2803 818.233 43.4598L817.27 45.2122ZM825.95 51.534V42.448H823.95V51.534H825.95ZM824.95 43.448H851.028V41.448H824.95V43.448ZM850.028 42.448V107.82H852.028V42.448H850.028ZM850.028 107.82C850.028 113.91 848.91 119.433 846.692 124.405L848.519 125.219C850.863 119.964 852.028 114.16 852.028 107.82H850.028ZM846.692 124.405C844.5 129.318 840.948 133.257 835.999 136.227L837.028 137.941C842.305 134.775 846.148 130.533 848.519 125.219L846.692 124.405ZM835.993 136.23C831.161 139.175 824.867 140.686 817.044 140.686V142.686C825.111 142.686 831.797 141.129 837.034 137.938L835.993 136.23ZM817.044 140.686C806.497 140.686 798.246 138.205 792.18 133.353L790.931 134.915C797.452 140.132 806.192 142.686 817.044 142.686V140.686ZM792.179 133.352C786.194 128.579 782.771 122.069 781.93 113.738L779.941 113.938C780.83 122.756 784.488 129.777 790.932 134.916L792.179 133.352ZM780.936 114.838H806.66V112.838H780.936V114.838ZM805.68 114.038C806.085 116.021 807.124 117.565 808.793 118.585C810.425 119.583 812.578 120.03 815.156 120.03V118.03C812.777 118.03 811.036 117.612 809.836 116.879C808.673 116.168 807.942 115.116 807.639 113.638L805.68 114.038ZM815.156 120.03C818.393 120.03 821.06 119.197 823.026 117.41L821.681 115.93C820.186 117.289 818.054 118.03 815.156 118.03V120.03ZM823.026 117.41C825.085 115.538 825.95 112.209 825.95 107.82H823.95C823.95 112.084 823.083 114.655 821.681 115.93L823.026 117.41ZM825.95 107.82V99.914H823.95V107.82H825.95ZM824.069 99.4399C822.509 102.337 820.245 104.643 817.253 106.363L818.25 108.097C821.551 106.199 824.086 103.627 825.83 100.388L824.069 99.4399ZM817.27 106.354C814.298 107.988 810.734 108.826 806.542 108.826V110.826C811.002 110.826 814.912 109.933 818.233 108.106L817.27 106.354ZM806.542 108.826C801.531 108.826 797.04 107.539 793.039 104.972L791.96 106.656C796.298 109.439 801.168 110.826 806.542 110.826V108.826ZM793.051 104.98C789.052 102.339 785.861 98.5552 783.49 93.5835L781.685 94.4445C784.191 99.6995 787.608 103.782 791.948 106.648L793.051 104.98ZM783.498 93.6002C781.209 88.5642 780.048 82.6143 780.048 75.724H778.048C778.048 82.8364 779.246 89.0798 781.677 94.4278L783.498 93.6002ZM780.048 75.724C780.048 68.8331 781.209 62.9251 783.495 57.9711L781.68 57.1329C779.246 62.4056 778.048 68.6122 778.048 75.724H780.048ZM783.493 57.9771C785.864 52.9281 789.052 49.1514 793.039 46.5937L791.96 44.9103C787.608 47.7019 784.188 51.7919 781.682 57.1269L783.493 57.9771ZM793.051 46.5865C797.05 43.9455 801.537 42.622 806.542 42.622V40.622C801.162 40.622 796.288 42.0518 791.948 44.9175L793.051 46.5865ZM825.95 75.724C825.95 72.0165 825 68.9915 822.971 66.7869L821.5 68.1411C823.09 69.8698 823.95 72.3515 823.95 75.724H825.95ZM822.971 66.7869C820.96 64.601 818.366 63.514 815.274 63.514V65.514C817.845 65.514 819.892 66.3937 821.5 68.1411L822.971 66.7869ZM815.274 63.514C812.181 63.514 809.587 64.601 807.576 66.7869L809.047 68.1411C810.655 66.3937 812.702 65.514 815.274 65.514V63.514ZM807.576 66.7869C805.547 68.9915 804.598 72.0165 804.598 75.724H806.598C806.598 72.3515 807.457 69.8698 809.047 68.1411L807.576 66.7869ZM804.598 75.724C804.598 79.4315 805.547 82.4565 807.576 84.6611L809.047 83.3069C807.457 81.5781 806.598 79.0965 806.598 75.724H804.598ZM807.576 84.6611C809.587 86.847 812.181 87.934 815.274 87.934V85.934C812.702 85.934 810.655 85.0543 809.047 83.3069L807.576 84.6611ZM815.274 87.934C818.366 87.934 820.96 86.847 822.971 84.6611L821.5 83.3069C819.892 85.0543 817.845 85.934 815.274 85.934V87.934ZM822.971 84.6611C825 82.4565 825.95 79.4315 825.95 75.724H823.95C823.95 79.0965 823.09 81.5781 821.5 83.3069L822.971 84.6611Z" fill="black"/>
</svg>
