<svg width="864" height="160" viewBox="0 0 864 160" fill="none" xmlns="http://www.w3.org/2000/svg">
<path d="M41.44 89.22H81.2V114H7V90.62L46.2 39.52H7V14.88H81.2V38.26L41.44 89.22ZM126.264 14.88V114H95.1836V14.88H126.264ZM221.361 48.9C221.361 55.1533 219.914 60.8467 217.021 65.98C214.127 71.02 209.834 75.0333 204.141 78.02C198.541 81.0067 191.727 82.5 183.701 82.5H171.381V114H140.301V14.88H183.701C195.834 14.88 205.121 17.96 211.561 24.12C218.094 30.28 221.361 38.54 221.361 48.9ZM180.201 58C186.641 58 189.861 54.9667 189.861 48.9C189.861 42.8333 186.641 39.8 180.201 39.8H171.381V58H180.201ZM312.279 48.9C312.279 55.1533 310.832 60.8467 307.939 65.98C305.045 71.02 300.752 75.0333 295.059 78.02C289.459 81.0067 282.645 82.5 274.619 82.5H262.299V114H231.219V14.88H274.619C286.752 14.88 296.039 17.96 302.479 24.12C309.012 30.28 312.279 38.54 312.279 48.9ZM271.119 58C277.559 58 280.779 54.9667 280.779 48.9C280.779 42.8333 277.559 39.8 271.119 39.8H262.299V58H271.119ZM417.337 14.88L381.777 83.9V114H350.697V83.9L315.137 14.88H350.697L366.517 50.02L382.337 14.88H417.337ZM458.842 89.22H498.602V114H424.402V90.62L463.602 39.52H424.402V14.88H498.602V38.26L458.842 89.22ZM543.666 14.88V114H512.586V14.88H543.666ZM618.463 48.76C617.25 46.8 615.523 45.3067 613.283 44.28C611.043 43.16 608.336 42.6 605.163 42.6C599.19 42.6 594.57 44.56 591.303 48.48C588.036 52.3067 586.403 57.58 586.403 64.3C586.403 72.0467 588.223 77.8333 591.863 81.66C595.503 85.4867 601.103 87.4 608.663 87.4C615.85 87.4 621.636 84.5067 626.023 78.72H601.243V56.74H651.783V87.82C647.49 95.1933 641.563 101.54 634.003 106.86C626.443 112.087 616.876 114.7 605.303 114.7C595.036 114.7 586.076 112.6 578.423 108.4C570.863 104.107 565.03 98.1333 560.923 90.48C556.91 82.8267 554.903 74.1 554.903 64.3C554.903 54.5 556.91 45.7733 560.923 38.12C565.03 30.4667 570.863 24.54 578.423 20.34C585.983 16.0467 594.85 13.9 605.023 13.9C617.996 13.9 628.543 17.0267 636.663 23.28C644.876 29.5333 649.73 38.0267 651.223 48.76H618.463ZM723.737 48.76C722.523 46.8 720.797 45.3067 718.557 44.28C716.317 43.16 713.61 42.6 710.437 42.6C704.463 42.6 699.843 44.56 696.577 48.48C693.31 52.3067 691.677 57.58 691.677 64.3C691.677 72.0467 693.497 77.8333 697.137 81.66C700.777 85.4867 706.377 87.4 713.937 87.4C721.123 87.4 726.91 84.5067 731.297 78.72H706.517V56.74H757.057V87.82C752.763 95.1933 746.837 101.54 739.277 106.86C731.717 112.087 722.15 114.7 710.577 114.7C700.31 114.7 691.35 112.6 683.697 108.4C676.137 104.107 670.303 98.1333 666.197 90.48C662.183 82.8267 660.177 74.1 660.177 64.3C660.177 54.5 662.183 45.7733 666.197 38.12C670.303 30.4667 676.137 24.54 683.697 20.34C691.257 16.0467 700.123 13.9 710.297 13.9C723.27 13.9 733.817 17.0267 741.937 23.28C750.15 29.5333 755.003 38.0267 756.497 48.76H723.737ZM863.45 14.88L827.89 83.9V114H796.81V83.9L761.25 14.88H796.81L812.63 50.02L828.45 14.88H863.45Z" fill="black"/>
</svg>
