<svg width="359" height="64" viewBox="0 0 359 64" fill="none" xmlns="http://www.w3.org/2000/svg">
<g clip-path="url(#clip0_323_9597)">
<path d="M11.4142 39.316H29.1827V47.6431H0V39.9108L17.6508 14.2156H0V5.88848H29.1827V13.6208L11.4142 39.316Z" fill="white"/>
<path d="M37.873 11.0037C36.1079 11.0037 34.6566 10.4882 33.5191 9.45725C32.4208 8.38662 31.8717 7.07807 31.8717 5.5316C31.8717 3.94548 32.4208 2.63693 33.5191 1.60595C34.6566 0.535315 36.1079 0 37.873 0C39.5988 0 41.0109 0.535315 42.1092 1.60595C43.2467 2.63693 43.8154 3.94548 43.8154 5.5316C43.8154 7.07807 43.2467 8.38662 42.1092 9.45725C41.0109 10.4882 39.5988 11.0037 37.873 11.0037ZM42.874 14.4535V47.6431H32.8131V14.4535H42.874Z" fill="white"/>
<path d="M57.2843 19.1524C58.2649 17.6059 59.6181 16.3569 61.344 15.4052C63.0698 14.4535 65.0899 13.9777 67.4041 13.9777C70.1105 13.9777 72.562 14.6716 74.7586 16.0595C76.9551 17.4473 78.681 19.43 79.9362 22.0074C81.2306 24.5849 81.8778 27.5787 81.8778 30.9888C81.8778 34.399 81.2306 37.4126 79.9362 40.0297C78.681 42.6072 76.9551 44.6097 74.7586 46.0372C72.562 47.425 70.1105 48.119 67.4041 48.119C65.1291 48.119 63.109 47.6431 61.344 46.6914C59.6181 45.7398 58.2649 44.5105 57.2843 43.0037V63.4647H47.2233V14.4535H57.2843V19.1524ZM71.6403 30.9888C71.6403 28.4511 70.9342 26.4684 69.5222 25.0409C68.1493 23.5737 66.4431 22.8401 64.4034 22.8401C62.403 22.8401 60.6968 23.5737 59.2847 25.0409C57.9119 26.5081 57.2254 28.5105 57.2254 31.0483C57.2254 33.5861 57.9119 35.5886 59.2847 37.0558C60.6968 38.5229 62.403 39.2565 64.4034 39.2565C66.4039 39.2565 68.1101 38.5229 69.5222 37.0558C70.9342 35.5489 71.6403 33.5266 71.6403 30.9888Z" fill="white"/>
<path d="M94.2752 19.1524C95.2558 17.6059 96.609 16.3569 98.3348 15.4052C100.061 14.4535 102.081 13.9777 104.395 13.9777C107.101 13.9777 109.553 14.6716 111.749 16.0595C113.946 17.4473 115.672 19.43 116.927 22.0074C118.221 24.5849 118.869 27.5787 118.869 30.9888C118.869 34.399 118.221 37.4126 116.927 40.0297C115.672 42.6072 113.946 44.6097 111.749 46.0372C109.553 47.425 107.101 48.119 104.395 48.119C102.12 48.119 100.1 47.6431 98.3348 46.6914C96.609 45.7398 95.2558 44.5105 94.2752 43.0037V63.4647H84.2142V14.4535H94.2752V19.1524ZM108.631 30.9888C108.631 28.4511 107.925 26.4684 106.513 25.0409C105.14 23.5737 103.434 22.8401 101.394 22.8401C99.3939 22.8401 97.6877 23.5737 96.2756 25.0409C94.9027 26.5081 94.2163 28.5105 94.2163 31.0483C94.2163 33.5861 94.9027 35.5886 96.2756 37.0558C97.6877 38.5229 99.3939 39.2565 101.394 39.2565C103.395 39.2565 105.101 38.5229 106.513 37.0558C107.925 35.5489 108.631 33.5266 108.631 30.9888Z" fill="white"/>
<path d="M154.742 14.4535L134.149 63.4052H123.323L130.854 46.513L117.498 14.4535H128.736L136.326 35.2119L143.857 14.4535H154.742Z" fill="white"/>
<path d="M175.673 39.316H193.441V47.6431H164.258V39.9108L181.909 14.2156H164.258V5.88848H193.441V13.6208L175.673 39.316Z" fill="white"/>
<path d="M202.131 11.0037C200.366 11.0037 198.915 10.4882 197.777 9.45725C196.679 8.38662 196.13 7.07807 196.13 5.5316C196.13 3.94548 196.679 2.63693 197.777 1.60595C198.915 0.535315 200.366 0 202.131 0C203.857 0 205.269 0.535315 206.368 1.60595C207.505 2.63693 208.074 3.94548 208.074 5.5316C208.074 7.07807 207.505 8.38662 206.368 9.45725C205.269 10.4882 203.857 11.0037 202.131 11.0037ZM207.132 14.4535V47.6431H197.071V14.4535H207.132Z" fill="white"/>
<path d="M223.955 13.9777C226.269 13.9777 228.289 14.4535 230.015 15.4052C231.78 16.3569 233.133 17.6059 234.075 19.1524V14.4535H244.136V47.5836C244.136 50.6369 243.528 53.3928 242.312 55.8513C241.135 58.3494 239.311 60.3321 236.84 61.7993C234.408 63.2664 231.368 64 227.72 64C222.857 64 218.915 62.8302 215.894 60.4907C212.874 58.1908 211.148 55.0582 210.717 51.0929H220.66C220.974 52.3618 221.719 53.3532 222.896 54.0669C224.073 54.8203 225.524 55.197 227.25 55.197C229.329 55.197 230.976 54.5824 232.192 53.3532C233.447 52.1636 234.075 50.2404 234.075 47.5836V42.8848C233.094 44.4312 231.741 45.7001 230.015 46.6914C228.289 47.6431 226.269 48.119 223.955 48.119C221.248 48.119 218.797 47.425 216.6 46.0372C214.404 44.6097 212.658 42.6072 211.364 40.0297C210.109 37.4126 209.481 34.399 209.481 30.9888C209.481 27.5787 210.109 24.5849 211.364 22.0074C212.658 19.43 214.404 17.4473 216.6 16.0595C218.797 14.6716 221.248 13.9777 223.955 13.9777ZM234.075 31.0483C234.075 28.5105 233.369 26.5081 231.957 25.0409C230.584 23.5737 228.897 22.8401 226.897 22.8401C224.896 22.8401 223.19 23.5737 221.778 25.0409C220.405 26.4684 219.719 28.4511 219.719 30.9888C219.719 33.5266 220.405 35.5489 221.778 37.0558C223.19 38.5229 224.896 39.2565 226.897 39.2565C228.897 39.2565 230.584 38.5229 231.957 37.0558C233.369 35.5886 234.075 33.5861 234.075 31.0483Z" fill="white"/>
<path d="M260.946 13.9777C263.26 13.9777 265.28 14.4535 267.006 15.4052C268.771 16.3569 270.124 17.6059 271.066 19.1524V14.4535H281.127V47.5836C281.127 50.6369 280.519 53.3928 279.303 55.8513C278.126 58.3494 276.302 60.3321 273.831 61.7993C271.399 63.2664 268.359 64 264.711 64C259.848 64 255.906 62.8302 252.885 60.4907C249.865 58.1908 248.139 55.0582 247.708 51.0929H257.651C257.965 52.3618 258.71 53.3532 259.887 54.0669C261.064 54.8203 262.515 55.197 264.241 55.197C266.32 55.197 267.967 54.5824 269.183 53.3532C270.438 52.1636 271.066 50.2404 271.066 47.5836V42.8848C270.085 44.4312 268.732 45.7001 267.006 46.6914C265.28 47.6431 263.26 48.119 260.946 48.119C258.239 48.119 255.788 47.425 253.591 46.0372C251.395 44.6097 249.649 42.6072 248.355 40.0297C247.1 37.4126 246.472 34.399 246.472 30.9888C246.472 27.5787 247.1 24.5849 248.355 22.0074C249.649 19.43 251.395 17.4473 253.591 16.0595C255.788 14.6716 258.239 13.9777 260.946 13.9777ZM271.066 31.0483C271.066 28.5105 270.36 26.5081 268.948 25.0409C267.575 23.5737 265.888 22.8401 263.888 22.8401C261.887 22.8401 260.181 23.5737 258.769 25.0409C257.396 26.4684 256.71 28.4511 256.71 30.9888C256.71 33.5266 257.396 35.5489 258.769 37.0558C260.181 38.5229 261.887 39.2565 263.888 39.2565C265.888 39.2565 267.575 38.5229 268.948 37.0558C270.36 35.5886 271.066 33.5861 271.066 31.0483Z" fill="white"/>
<path d="M319 14.4535L298.407 63.4052H287.582L295.113 46.513L281.757 14.4535H292.994L300.584 35.2119L308.115 14.4535H319Z" fill="white"/>
<path d="M354.75 14H329.25C326.903 14 325 15.9028 325 18.25V43.75C325 46.0972 326.903 48 329.25 48H347.614L350.205 41.7001L340.627 43.8099L340.054 41.2113L344.149 31.2547L333.987 33.5186L333.415 30.9199L337.51 20.9634L331.513 22.2843L330.896 19.4858L340.811 17.3018L341.383 19.9004L337.249 29.8658L347.451 27.5931L348.023 30.1918L343.89 40.1522L353.509 38.0335L354.081 40.6321L351.024 48H354.75C357.097 48 359 46.0972 359 43.75V18.25C359 15.9028 357.097 14 354.75 14Z" fill="url(#paint0_linear_323_9597)"/>
</g>
<defs>
<linearGradient id="paint0_linear_323_9597" x1="350.766" y1="47.7344" x2="325" y2="14" gradientUnits="userSpaceOnUse">
<stop stop-color="#9BE15D"/>
<stop offset="1" stop-color="#00E3AE"/>
</linearGradient>
<clipPath id="clip0_323_9597">
<rect width="359" height="64" fill="white"/>
</clipPath>
</defs>
</svg>
