<svg width="862" height="173" viewBox="0 0 862 173" fill="none" xmlns="http://www.w3.org/2000/svg">
<path d="M30.8434 106.276H78.8573V128.785H0V107.884L47.696 38.4266H0V15.9173H78.8573V36.8188L30.8434 106.276Z" fill="#FF0101"/>
<path d="M102.34 29.7444C97.5705 29.7444 93.6489 28.351 90.5751 25.5641C87.6074 22.6701 86.1235 19.1329 86.1235 14.9526C86.1235 10.6651 87.6074 7.12794 90.5751 4.34108C93.6489 1.44702 97.5705 0 102.34 0C107.004 0 110.819 1.44702 113.787 4.34108C116.861 7.12794 118.398 10.6651 118.398 14.9526C118.398 19.1329 116.861 22.6701 113.787 25.5641C110.819 28.351 107.004 29.7444 102.34 29.7444ZM115.854 39.0697V128.785H88.6673V39.0697H115.854Z" fill="#FF0101"/>
<path d="M154.793 51.7714C157.443 47.5911 161.1 44.2147 165.763 41.6422C170.427 39.0697 175.885 37.7835 182.139 37.7835C189.452 37.7835 196.077 39.6592 202.012 43.4108C207.948 47.1623 212.611 52.5217 216.003 59.4888C219.501 66.456 221.25 74.5486 221.25 83.7667C221.25 92.9848 219.501 101.131 216.003 108.205C212.611 115.173 207.948 120.585 202.012 124.444C196.077 128.196 189.452 130.072 182.139 130.072C175.991 130.072 170.533 128.785 165.763 126.213C161.1 123.64 157.443 120.318 154.793 116.244V171.553H127.607V39.0697H154.793V51.7714ZM193.586 83.7667C193.586 76.9068 191.678 71.5474 187.862 67.6887C184.153 63.7227 179.542 61.7398 174.031 61.7398C168.625 61.7398 164.014 63.7227 160.199 67.6887C156.489 71.6546 154.634 77.0675 154.634 83.9275C154.634 90.7875 156.489 96.2004 160.199 100.166C164.014 104.132 168.625 106.115 174.031 106.115C179.436 106.115 184.047 104.132 187.862 100.166C191.678 96.0932 193.586 90.6267 193.586 83.7667Z" fill="#FF0101"/>
<path d="M254.75 51.7714C257.4 47.5911 261.056 44.2147 265.72 41.6422C270.383 39.0697 275.842 37.7835 282.095 37.7835C289.409 37.7835 296.033 39.6592 301.969 43.4108C307.904 47.1623 312.568 52.5217 315.96 59.4888C319.457 66.456 321.206 74.5486 321.206 83.7667C321.206 92.9848 319.457 101.131 315.96 108.205C312.568 115.173 307.904 120.585 301.969 124.444C296.033 128.196 289.409 130.072 282.095 130.072C275.948 130.072 270.489 128.785 265.72 126.213C261.056 123.64 257.4 120.318 254.75 116.244V171.553H227.563V39.0697H254.75V51.7714ZM293.543 83.7667C293.543 76.9068 291.635 71.5474 287.819 67.6887C284.109 63.7227 279.499 61.7398 273.987 61.7398C268.582 61.7398 263.971 63.7227 260.155 67.6887C256.446 71.6546 254.591 77.0675 254.591 83.9275C254.591 90.7875 256.446 96.2004 260.155 100.166C263.971 104.132 268.582 106.115 273.987 106.115C279.393 106.115 284.003 104.132 287.819 100.166C291.635 96.0932 293.543 90.6267 293.543 83.7667Z" fill="#FF0101"/>
<path d="M418.142 39.0697L362.497 171.392H333.243L353.593 125.73L317.504 39.0697H347.87L368.379 95.1822L388.729 39.0697H418.142Z" fill="#FF0101"/>
<path d="M474.701 106.276H522.715V128.785H443.858V107.884L491.554 38.4266H443.858V15.9173H522.715V36.8188L474.701 106.276Z" fill="#FF0101"/>
<path d="M546.198 29.7444C541.429 29.7444 537.507 28.351 534.433 25.5641C531.465 22.6701 529.982 19.1329 529.982 14.9526C529.982 10.6651 531.465 7.12794 534.433 4.34108C537.507 1.44702 541.429 0 546.198 0C550.862 0 554.677 1.44702 557.645 4.34108C560.719 7.12794 562.256 10.6651 562.256 14.9526C562.256 19.1329 560.719 22.6701 557.645 25.5641C554.677 28.351 550.862 29.7444 546.198 29.7444ZM559.712 39.0697V128.785H532.525V39.0697H559.712Z" fill="#FF0101"/>
<path d="M605.17 37.7835C611.423 37.7835 616.882 39.0697 621.545 41.6422C626.315 44.2147 629.972 47.5911 632.515 51.7714V39.0697H659.702V128.625C659.702 136.878 658.059 144.327 654.773 150.973C651.594 157.726 646.665 163.085 639.988 167.051C633.416 171.017 625.202 173 615.345 173C602.202 173 591.55 169.838 583.389 163.514C575.227 157.297 570.564 148.829 569.398 138.111H596.267C597.114 141.541 599.128 144.22 602.308 146.15C605.488 148.186 609.409 149.204 614.073 149.204C619.691 149.204 624.142 147.543 627.428 144.22C630.82 141.005 632.515 135.806 632.515 128.625V115.923C629.866 120.103 626.209 123.533 621.545 126.213C616.882 128.785 611.423 130.072 605.17 130.072C597.856 130.072 591.232 128.196 585.296 124.444C579.361 120.585 574.644 115.173 571.147 108.205C567.755 101.131 566.059 92.9848 566.059 83.7667C566.059 74.5486 567.755 66.456 571.147 59.4888C574.644 52.5217 579.361 47.1623 585.296 43.4108C591.232 39.6592 597.856 37.7835 605.17 37.7835ZM632.515 83.9275C632.515 77.0675 630.608 71.6546 626.792 67.6887C623.082 63.7227 618.525 61.7398 613.119 61.7398C607.714 61.7398 603.103 63.7227 599.287 67.6887C595.578 71.5474 593.723 76.9068 593.723 83.7667C593.723 90.6267 595.578 96.0932 599.287 100.166C603.103 104.132 607.714 106.115 613.119 106.115C618.525 106.115 623.082 104.132 626.792 100.166C630.608 96.2004 632.515 90.7875 632.515 83.9275Z" fill="#FF0101"/>
<path d="M705.126 37.7835C711.38 37.7835 716.838 39.0697 721.502 41.6422C726.272 44.2147 729.928 47.5911 732.472 51.7714V39.0697H759.659V128.625C759.659 136.878 758.016 144.327 754.73 150.973C751.55 157.726 746.622 163.085 739.944 167.051C733.373 171.017 725.159 173 715.301 173C702.159 173 691.506 169.838 683.345 163.514C675.184 157.297 670.52 148.829 669.354 138.111H696.223C697.071 141.541 699.085 144.22 702.265 146.15C705.444 148.186 709.366 149.204 714.03 149.204C719.647 149.204 724.099 147.543 727.384 144.22C730.776 141.005 732.472 135.806 732.472 128.625V115.923C729.822 120.103 726.166 123.533 721.502 126.213C716.838 128.785 711.38 130.072 705.126 130.072C697.813 130.072 691.188 128.196 685.253 124.444C679.317 120.585 674.601 115.173 671.103 108.205C667.711 101.131 666.016 92.9848 666.016 83.7667C666.016 74.5486 667.711 66.456 671.103 59.4888C674.601 52.5217 679.317 47.1623 685.253 43.4108C691.188 39.6592 697.813 37.7835 705.126 37.7835ZM732.472 83.9275C732.472 77.0675 730.564 71.6546 726.749 67.6887C723.039 63.7227 718.481 61.7398 713.076 61.7398C707.67 61.7398 703.059 63.7227 699.244 67.6887C695.534 71.5474 693.679 76.9068 693.679 83.7667C693.679 90.6267 695.534 96.0932 699.244 100.166C703.059 104.132 707.67 106.115 713.076 106.115C718.481 106.115 723.039 104.132 726.749 100.166C730.564 96.2004 732.472 90.7875 732.472 83.9275Z" fill="#FF0101"/>
<path d="M862 39.0697L806.355 171.392H777.101L797.452 125.73L761.362 39.0697H791.728L812.237 95.1822L832.588 39.0697H862Z" fill="#FF0101"/>
</svg>
